<?xml version="1.0" encoding="UTF-8" standalone="no"?>
<!-- Created with Inkscape (http://www.inkscape.org/) -->

<svg
   xmlns:dc="http://purl.org/dc/elements/1.1/"
   xmlns:cc="http://creativecommons.org/ns#"
   xmlns:rdf="http://www.w3.org/1999/02/22-rdf-syntax-ns#"
   xmlns:svg="http://www.w3.org/2000/svg"
   xmlns="http://www.w3.org/2000/svg"
   xmlns:sodipodi="http://sodipodi.sourceforge.net/DTD/sodipodi-0.dtd"
   xmlns:inkscape="http://www.inkscape.org/namespaces/inkscape"
   width="60.959999mm"
   height="128.5mm"
   viewBox="0 0 60.96 128.5"
   version="1.1"
   id="svg8"
   inkscape:version="0.91 r13725"
   sodipodi:docname="playGround.svg">
  <defs
     id="defs2" />
  <sodipodi:namedview
     id="base"
     pagecolor="#ffffff"
     bordercolor="#666666"
     borderopacity="1.0"
     inkscape:pageopacity="0.0"
     inkscape:pageshadow="2"
     inkscape:zoom="0.79239855"
     inkscape:cx="-70.903499"
     inkscape:cy="229.18692"
     inkscape:document-units="mm"
     inkscape:current-layer="layer1"
     showgrid="false"
     inkscape:window-width="1360"
     inkscape:window-height="724"
     inkscape:window-x="0"
     inkscape:window-y="0"
     inkscape:window-maximized="0" />
  <metadata
     id="metadata5">
    <rdf:RDF>
      <cc:Work
         rdf:about="">
        <dc:format>image/svg+xml</dc:format>
        <dc:type
           rdf:resource="http://purl.org/dc/dcmitype/StillImage" />
        <dc:title />
      </cc:Work>
    </rdf:RDF>
  </metadata>
  <g
     inkscape:label="look"
     inkscape:groupmode="layer"
     id="layer1"
     transform="translate(0,-168.5)"
     style="display:inline">
    <rect
       style="opacity:1;fill:#d9d8d6;fill-opacity:1;stroke-width:0.2466049"
       id="rect886"
       width="60.959999"
       height="128.5"
       x="0"
       y="168.5"
       ry="0" />
    <g
       transform="matrix(0.20495542,0,0,0.20495542,-8.9441566,269.0841)"
       style="font-style:normal;font-weight:normal;font-size:40px;line-height:1.25;font-family:sans-serif;letter-spacing:0px;word-spacing:0px;fill:#000000;fill-opacity:1;stroke:none"
       id="flowRoot888">
      <path
         d="m 202.4738,50.607151 0,3.580317 q -1.71451,-1.596855 -3.66436,-2.386878 -1.93303,-0.790023 -4.1182,-0.790023 -4.30311,0 -6.58913,2.639013 -2.28602,2.622204 -2.28602,7.597668 0,4.958655 2.28602,7.597668 2.28602,2.622204 6.58913,2.622204 2.18517,0 4.1182,-0.790023 1.94985,-0.790023 3.66436,-2.386878 l 0,3.546699 q -1.78175,1.210248 -3.78202,1.815372 -1.98346,0.605124 -4.20225,0.605124 -5.69825,0 -8.97601,-3.479463 -3.27775,-3.496272 -3.27775,-9.530703 0,-6.05124 3.27775,-9.530703 3.27776,-3.496271 8.97601,-3.496271 2.25241,0 4.23587,0.605124 2.00027,0.588314 3.7484,1.781753 z"
         style="font-size:34.42483139px"
         id="path4259" />
    </g>
    <flowRoot
       xml:space="preserve"
       id="flowRoot896"
       style="font-style:normal;font-weight:normal;font-size:40px;line-height:1.25;font-family:sans-serif;letter-spacing:0px;word-spacing:0px;fill:#000000;fill-opacity:1;stroke:none"
       transform="matrix(0.26458333,0,0,0.26458333,0,168.5)"><flowRegion
         id="flowRegion898"><rect
           id="rect900"
           width="144.69698"
           height="42.424244"
           x="167.42424"
           y="102.33595" /></flowRegion><flowPara
         id="flowPara902">Name</flowPara></flowRoot>    <g
       transform="matrix(0.26458333,0,0,0.26458333,-24.749704,148.38459)"
       style="font-style:normal;font-weight:normal;font-size:40px;line-height:1.25;font-family:sans-serif;letter-spacing:0px;word-spacing:0px;fill:#000000;fill-opacity:1;stroke:none"
       id="flowRoot904">
      <path
         d="m 166.78516,121.55346 0,4.38281 1.98437,0 q 1.10156,0 1.70313,-0.57031 0.60156,-0.57032 0.60156,-1.625 0,-1.04688 -0.60156,-1.61719 -0.60157,-0.57031 -1.70313,-0.57031 l -1.98437,0 z m -1.57813,-1.29688 3.5625,0 q 1.96094,0 2.96094,0.89063 1.00781,0.88281 1.00781,2.59375 0,1.72656 -1.00781,2.60937 -1,0.88281 -2.96094,0.88281 l -1.98437,0 0,4.6875 -1.57813,0 0,-11.66406 z"
         style="font-size:16px"
         id="path4184" />
      <path
         d="m 174.80078,119.76439 1.4375,0 0,12.15625 -1.4375,0 0,-12.15625 z"
         style="font-size:16px"
         id="path4186" />
      <path
         d="m 183.21484,127.52221 q -1.74218,0 -2.41406,0.39843 -0.67187,0.39844 -0.67187,1.35938 0,0.76562 0.5,1.21875 0.50781,0.44531 1.375,0.44531 1.19531,0 1.91406,-0.84375 0.72656,-0.85156 0.72656,-2.25781 l 0,-0.32031 -1.42969,0 z m 2.86719,-0.59375 0,4.99218 -1.4375,0 0,-1.32812 q -0.49219,0.79687 -1.22656,1.17969 -0.73438,0.375 -1.79688,0.375 -1.34375,0 -2.14062,-0.75 -0.78906,-0.75782 -0.78906,-2.02344 0,-1.47656 0.98437,-2.22656 0.99219,-0.75 2.95313,-0.75 l 2.01562,0 0,-0.14063 q 0,-0.99219 -0.65625,-1.53125 -0.64844,-0.54687 -1.82812,-0.54687 -0.75,0 -1.46094,0.17968 -0.71094,0.17969 -1.36719,0.53907 l 0,-1.32813 q 0.78906,-0.30469 1.53125,-0.45312 0.74219,-0.15625 1.44531,-0.15625 1.89844,0 2.83594,0.98437 0.9375,0.98438 0.9375,2.98438 z"
         style="font-size:16px"
         id="path4188" />
      <path
         d="m 192.72266,132.73314 q -0.60938,1.5625 -1.1875,2.03907 -0.57813,0.47656 -1.54688,0.47656 l -1.14844,0 0,-1.20313 0.84375,0 q 0.59375,0 0.92188,-0.28125 0.32812,-0.28125 0.72656,-1.32812 l 0.25781,-0.65625 -3.53906,-8.60938 1.52344,0 2.73437,6.84375 2.73438,-6.84375 1.52344,0 -3.84375,9.5625 z"
         style="font-size:16px"
         id="path4190" />
      <path
         d="m 204.30859,127.44408 q 0,-1.5625 -0.64843,-2.42187 -0.64063,-0.85938 -1.80469,-0.85938 -1.15625,0 -1.80469,0.85938 -0.64062,0.85937 -0.64062,2.42187 0,1.55469 0.64062,2.41406 0.64844,0.85938 1.80469,0.85938 1.16406,0 1.80469,-0.85938 0.64843,-0.85937 0.64843,-2.41406 z m 1.4375,3.39063 q 0,2.23437 -0.99218,3.32031 -0.99219,1.09375 -3.03907,1.09375 -0.75781,0 -1.42968,-0.11719 -0.67188,-0.10937 -1.30469,-0.34375 l 0,-1.39844 q 0.63281,0.34375 1.25,0.50782 0.61719,0.16406 1.25781,0.16406 1.41406,0 2.11719,-0.74219 0.70312,-0.73437 0.70312,-2.22656 l 0,-0.71094 q -0.44531,0.77344 -1.14062,1.15625 -0.69531,0.38281 -1.66406,0.38281 -1.60938,0 -2.59375,-1.22656 -0.98438,-1.22656 -0.98438,-3.25 0,-2.03125 0.98438,-3.25781 0.98437,-1.22656 2.59375,-1.22656 0.96875,0 1.66406,0.38281 0.69531,0.38281 1.14062,1.15625 l 0,-1.32813 1.4375,0 0,7.66407 z"
         style="font-size:16px"
         id="path4192" />
      <path
         d="m 213.77734,124.51439 q -0.24218,-0.14062 -0.53125,-0.20312 -0.28125,-0.0703 -0.625,-0.0703 -1.21875,0 -1.875,0.79687 -0.64843,0.78906 -0.64843,2.27344 l 0,4.60937 -1.44532,0 0,-8.75 1.44532,0 0,1.35938 q 0.45312,-0.79688 1.17968,-1.17969 0.72657,-0.39062 1.76563,-0.39062 0.14844,0 0.32812,0.0234 0.17969,0.0156 0.39844,0.0547 l 0.008,1.47656 z"
         style="font-size:16px"
         id="path4194" />
      <path
         d="m 218.36328,124.17846 q -1.15625,0 -1.82812,0.90625 -0.67188,0.89843 -0.67188,2.46875 0,1.57031 0.66406,2.47656 0.67188,0.89844 1.83594,0.89844 1.14844,0 1.82031,-0.90625 0.67188,-0.90625 0.67188,-2.46875 0,-1.55469 -0.67188,-2.46094 -0.67187,-0.91406 -1.82031,-0.91406 z m 0,-1.21875 q 1.875,0 2.94531,1.21875 1.07032,1.21875 1.07032,3.375 0,2.14843 -1.07032,3.375 -1.07031,1.21875 -2.94531,1.21875 -1.88281,0 -2.95312,-1.21875 -1.0625,-1.22657 -1.0625,-3.375 0,-2.15625 1.0625,-3.375 1.07031,-1.21875 2.95312,-1.21875 z"
         style="font-size:16px"
         id="path4196" />
      <path
         d="m 224.62109,128.46752 0,-5.29688 1.4375,0 0,5.24219 q 0,1.24219 0.48438,1.86719 0.48437,0.61719 1.45312,0.61719 1.16407,0 1.83594,-0.74219 0.67969,-0.74219 0.67969,-2.02344 l 0,-4.96094 1.4375,0 0,8.75 -1.4375,0 0,-1.34375 q -0.52344,0.79688 -1.21875,1.1875 -0.6875,0.38282 -1.60156,0.38282 -1.50782,0 -2.28907,-0.9375 -0.78125,-0.9375 -0.78125,-2.74219 z"
         style="font-size:16px"
         id="path4198" />
      <path
         d="m 242.19922,126.63939 0,5.28125 -1.4375,0 0,-5.23437 q 0,-1.24219 -0.48438,-1.85938 -0.48437,-0.61718 -1.45312,-0.61718 -1.16406,0 -1.83594,0.74218 -0.67187,0.74219 -0.67187,2.02344 l 0,4.94531 -1.44532,0 0,-8.75 1.44532,0 0,1.35938 q 0.51562,-0.78906 1.21093,-1.17969 0.70313,-0.39062 1.61719,-0.39062 1.50781,0 2.28125,0.9375 0.77344,0.92968 0.77344,2.74218 z"
         style="font-size:16px"
         id="path4200" />
      <path
         d="m 250.83984,124.49877 0,-4.73438 1.4375,0 0,12.15625 -1.4375,0 0,-1.3125 q -0.45312,0.78125 -1.14843,1.16407 -0.6875,0.375 -1.65625,0.375 -1.58594,0 -2.58594,-1.26563 -0.99219,-1.26562 -0.99219,-3.32812 0,-2.0625 0.99219,-3.32813 1,-1.26562 2.58594,-1.26562 0.96875,0 1.65625,0.38281 0.69531,0.375 1.14843,1.15625 z m -4.89843,3.05469 q 0,1.58593 0.64843,2.49218 0.65625,0.89844 1.79688,0.89844 1.14062,0 1.79687,-0.89844 0.65625,-0.90625 0.65625,-2.49218 0,-1.58594 -0.65625,-2.48438 -0.65625,-0.90625 -1.79687,-0.90625 -1.14063,0 -1.79688,0.90625 -0.64843,0.89844 -0.64843,2.48438 z"
         style="font-size:16px"
         id="path4202" />
    </g>
    <g
       transform="matrix(0.26458333,0,0,0.26458333,-38.906832,156.56905)"
       style="font-style:normal;font-weight:normal;font-size:40px;line-height:1.25;font-family:sans-serif;letter-spacing:0px;word-spacing:0px;fill:#000000;fill-opacity:1;stroke:none"
       id="flowRoot4278">
      <path
         d="m 165.20703,120.25658 1.57813,0 0,11.66406 -1.57813,0 0,-11.66406 z"
         style="font-size:16px"
         id="path4205" />
      <path
         d="m 177.13672,126.63939 0,5.28125 -1.4375,0 0,-5.23437 q 0,-1.24219 -0.48438,-1.85938 -0.48437,-0.61718 -1.45312,-0.61718 -1.16406,0 -1.83594,0.74218 -0.67187,0.74219 -0.67187,2.02344 l 0,4.94531 -1.44532,0 0,-8.75 1.44532,0 0,1.35938 q 0.51562,-0.78906 1.21093,-1.17969 0.70313,-0.39062 1.61719,-0.39062 1.50781,0 2.28125,0.9375 0.77344,0.92968 0.77344,2.74218 z"
         style="font-size:16px"
         id="path4207" />
      <path
         d="m 181.41016,130.60814 0,4.64063 -1.44532,0 0,-12.07813 1.44532,0 0,1.32813 q 0.45312,-0.78125 1.14062,-1.15625 0.69531,-0.38281 1.65625,-0.38281 1.59375,0 2.58594,1.26562 1,1.26563 1,3.32813 0,2.0625 -1,3.32812 -0.99219,1.26563 -2.58594,1.26563 -0.96094,0 -1.65625,-0.375 -0.6875,-0.38282 -1.14062,-1.16407 z m 4.89062,-3.05468 q 0,-1.58594 -0.65625,-2.48438 -0.64844,-0.90625 -1.78906,-0.90625 -1.14063,0 -1.79688,0.90625 -0.64843,0.89844 -0.64843,2.48438 0,1.58593 0.64843,2.49218 0.65625,0.89844 1.79688,0.89844 1.14062,0 1.78906,-0.89844 0.65625,-0.90625 0.65625,-2.49218 z"
         style="font-size:16px"
         id="path4209" />
      <path
         d="m 190.02734,128.46752 0,-5.29688 1.4375,0 0,5.24219 q 0,1.24219 0.48438,1.86719 0.48437,0.61719 1.45312,0.61719 1.16407,0 1.83594,-0.74219 0.67969,-0.74219 0.67969,-2.02344 l 0,-4.96094 1.4375,0 0,8.75 -1.4375,0 0,-1.34375 q -0.52344,0.79688 -1.21875,1.1875 -0.6875,0.38282 -1.60156,0.38282 -1.50782,0 -2.28907,-0.9375 -0.78125,-0.9375 -0.78125,-2.74219 z"
         style="font-size:16px"
         id="path4211" />
      <path
         d="m 201.75391,120.68627 0,2.48437 2.96093,0 0,1.11719 -2.96093,0 0,4.75 q 0,1.07031 0.28906,1.375 0.29687,0.30469 1.19531,0.30469 l 1.47656,0 0,1.20312 -1.47656,0 q -1.66406,0 -2.29687,-0.61718 -0.63282,-0.625 -0.63282,-2.26563 l 0,-4.75 -1.05468,0 0,-1.11719 1.05468,0 0,-2.48437 1.44532,0 z"
         style="font-size:16px"
         id="path4213" />
      <path
         d="m 212.19141,123.42846 0,1.35937 q -0.60938,-0.3125 -1.26563,-0.46875 -0.65625,-0.15625 -1.35937,-0.15625 -1.07032,0 -1.60938,0.32813 -0.53125,0.32812 -0.53125,0.98437 0,0.5 0.38281,0.78906 0.38282,0.28125 1.53907,0.53907 l 0.49218,0.10937 q 1.53125,0.32813 2.17188,0.92969 0.64844,0.59375 0.64844,1.66406 0,1.21875 -0.96875,1.92969 -0.96094,0.71094 -2.64844,0.71094 -0.70313,0 -1.46875,-0.14063 -0.75781,-0.13281 -1.60156,-0.40625 l 0,-1.48437 q 0.79687,0.41406 1.57031,0.625 0.77344,0.20312 1.53125,0.20312 1.01562,0 1.5625,-0.34375 0.54687,-0.35156 0.54687,-0.98437 0,-0.58594 -0.39843,-0.89844 -0.39063,-0.3125 -1.72657,-0.60156 l -0.5,-0.11719 q -1.33593,-0.28125 -1.92968,-0.85938 -0.59375,-0.58593 -0.59375,-1.60156 0,-1.23437 0.875,-1.90625 0.875,-0.67187 2.48437,-0.67187 0.79688,0 1.5,0.11718 0.70313,0.11719 1.29688,0.35157 z"
         style="font-size:16px"
         id="path4215" />
    </g>
    <rect
       ry="3.006619"
       y="192.92175"
       x="4.804194"
       height="15.434028"
       width="51.136742"
       id="rect4275"
       style="display:inline;opacity:1;fill:#333333;fill-opacity:1;stroke-width:0.26458332" />
    <rect
       style="display:inline;opacity:1;fill:#333333;fill-opacity:1;stroke-width:0.26458332"
       id="rect4287"
       width="51.136742"
       height="15.434028"
       x="4.804194"
       y="214.93484"
       ry="3.006619" />
    <rect
       ry="3.006619"
       y="236.38348"
       x="4.804194"
       height="15.434028"
       width="51.136742"
       id="rect4297"
       style="display:inline;opacity:1;fill:#333333;fill-opacity:1;stroke-width:0.26458332" />
    <g
       transform="matrix(0.26458333,0,0,0.26458333,-38.906832,178.58221)"
       style="font-style:normal;font-weight:normal;font-size:40px;line-height:1.25;font-family:sans-serif;letter-spacing:0px;word-spacing:0px;fill:#000000;fill-opacity:1;stroke:none"
       id="flowRoot4307">
      <path
         d="m 165.20703,120.25658 1.57813,0 0,10.33594 5.67968,0 0,1.32812 -7.25781,0 0,-11.66406 z"
         style="font-size:16px"
         id="path4218" />
      <path
         d="m 174.05078,123.17064 1.4375,0 0,8.75 -1.4375,0 0,-8.75 z m 0,-3.40625 1.4375,0 0,1.82032 -1.4375,0 0,-1.82032 z"
         style="font-size:16px"
         id="path4220" />
      <path
         d="m 184.24609,127.44408 q 0,-1.5625 -0.64843,-2.42187 -0.64063,-0.85938 -1.80469,-0.85938 -1.15625,0 -1.80469,0.85938 -0.64062,0.85937 -0.64062,2.42187 0,1.55469 0.64062,2.41406 0.64844,0.85938 1.80469,0.85938 1.16406,0 1.80469,-0.85938 0.64843,-0.85937 0.64843,-2.41406 z m 1.4375,3.39063 q 0,2.23437 -0.99218,3.32031 -0.99219,1.09375 -3.03907,1.09375 -0.75781,0 -1.42968,-0.11719 -0.67188,-0.10937 -1.30469,-0.34375 l 0,-1.39844 q 0.63281,0.34375 1.25,0.50782 0.61719,0.16406 1.25781,0.16406 1.41406,0 2.11719,-0.74219 0.70312,-0.73437 0.70312,-2.22656 l 0,-0.71094 q -0.44531,0.77344 -1.14062,1.15625 -0.69531,0.38281 -1.66406,0.38281 -1.60938,0 -2.59375,-1.22656 -0.98438,-1.22656 -0.98438,-3.25 0,-2.03125 0.98438,-3.25781 0.98437,-1.22656 2.59375,-1.22656 0.96875,0 1.66406,0.38281 0.69531,0.38281 1.14062,1.15625 l 0,-1.32813 1.4375,0 0,7.66407 z"
         style="font-size:16px"
         id="path4222" />
      <path
         d="m 195.91797,126.63939 0,5.28125 -1.4375,0 0,-5.23437 q 0,-1.24219 -0.48438,-1.85938 -0.48437,-0.61718 -1.45312,-0.61718 -1.16406,0 -1.83594,0.74218 -0.67187,0.74219 -0.67187,2.02344 l 0,4.94531 -1.44532,0 0,-12.15625 1.44532,0 0,4.76563 q 0.51562,-0.78906 1.21093,-1.17969 0.70313,-0.39062 1.61719,-0.39062 1.50781,0 2.28125,0.9375 0.77344,0.92968 0.77344,2.74218 z"
         style="font-size:16px"
         id="path4224" />
      <path
         d="m 200.22266,120.68627 0,2.48437 2.96093,0 0,1.11719 -2.96093,0 0,4.75 q 0,1.07031 0.28906,1.375 0.29687,0.30469 1.19531,0.30469 l 1.47656,0 0,1.20312 -1.47656,0 q -1.66406,0 -2.29687,-0.61718 -0.63282,-0.625 -0.63282,-2.26563 l 0,-4.75 -1.05468,0 0,-1.11719 1.05468,0 0,-2.48437 1.44532,0 z"
         style="font-size:16px"
         id="path4226" />
      <path
         d="m 210.66016,123.42846 0,1.35937 q -0.60938,-0.3125 -1.26563,-0.46875 -0.65625,-0.15625 -1.35937,-0.15625 -1.07032,0 -1.60938,0.32813 -0.53125,0.32812 -0.53125,0.98437 0,0.5 0.38281,0.78906 0.38282,0.28125 1.53907,0.53907 l 0.49218,0.10937 q 1.53125,0.32813 2.17188,0.92969 0.64844,0.59375 0.64844,1.66406 0,1.21875 -0.96875,1.92969 -0.96094,0.71094 -2.64844,0.71094 -0.70313,0 -1.46875,-0.14063 -0.75781,-0.13281 -1.60156,-0.40625 l 0,-1.48437 q 0.79687,0.41406 1.57031,0.625 0.77344,0.20312 1.53125,0.20312 1.01562,0 1.5625,-0.34375 0.54687,-0.35156 0.54687,-0.98437 0,-0.58594 -0.39843,-0.89844 -0.39063,-0.3125 -1.72657,-0.60156 l -0.5,-0.11719 q -1.33593,-0.28125 -1.92968,-0.85938 -0.59375,-0.58593 -0.59375,-1.60156 0,-1.23437 0.875,-1.90625 0.875,-0.67187 2.48437,-0.67187 0.79688,0 1.5,0.11718 0.70313,0.11719 1.29688,0.35157 z"
         style="font-size:16px"
         id="path4228" />
    </g>
    <g
       transform="matrix(0.26458333,0,0,0.26458333,-38.906832,200.59537)"
       style="font-style:normal;font-weight:normal;font-size:40px;line-height:1.25;font-family:sans-serif;letter-spacing:0px;word-spacing:0px;fill:#000000;fill-opacity:1;stroke:none"
       id="flowRoot4315">
      <path
         d="m 166.78516,121.55346 0,4.38281 1.98437,0 q 1.10156,0 1.70313,-0.57031 0.60156,-0.57032 0.60156,-1.625 0,-1.04688 -0.60156,-1.61719 -0.60157,-0.57031 -1.70313,-0.57031 l -1.98437,0 z m -1.57813,-1.29688 3.5625,0 q 1.96094,0 2.96094,0.89063 1.00781,0.88281 1.00781,2.59375 0,1.72656 -1.00781,2.60937 -1,0.88281 -2.96094,0.88281 l -1.98437,0 0,4.6875 -1.57813,0 0,-11.66406 z"
         style="font-size:16px"
         id="path4231" />
      <path
         d="m 178.07422,127.52221 q -1.74219,0 -2.41406,0.39843 -0.67188,0.39844 -0.67188,1.35938 0,0.76562 0.5,1.21875 0.50781,0.44531 1.375,0.44531 1.19531,0 1.91406,-0.84375 0.72657,-0.85156 0.72657,-2.25781 l 0,-0.32031 -1.42969,0 z m 2.86719,-0.59375 0,4.99218 -1.4375,0 0,-1.32812 q -0.49219,0.79687 -1.22657,1.17969 -0.73437,0.375 -1.79687,0.375 -1.34375,0 -2.14063,-0.75 -0.78906,-0.75782 -0.78906,-2.02344 0,-1.47656 0.98438,-2.22656 0.99218,-0.75 2.95312,-0.75 l 2.01563,0 0,-0.14063 q 0,-0.99219 -0.65625,-1.53125 -0.64844,-0.54687 -1.82813,-0.54687 -0.75,0 -1.46094,0.17968 -0.71093,0.17969 -1.36718,0.53907 l 0,-1.32813 q 0.78906,-0.30469 1.53125,-0.45312 0.74218,-0.15625 1.44531,-0.15625 1.89844,0 2.83594,0.98437 0.9375,0.98438 0.9375,2.98438 z"
         style="font-size:16px"
         id="path4233" />
      <path
         d="m 189.02734,124.51439 q -0.24218,-0.14062 -0.53125,-0.20312 -0.28125,-0.0703 -0.625,-0.0703 -1.21875,0 -1.875,0.79687 -0.64843,0.78906 -0.64843,2.27344 l 0,4.60937 -1.44532,0 0,-8.75 1.44532,0 0,1.35938 q 0.45312,-0.79688 1.17968,-1.17969 0.72657,-0.39062 1.76563,-0.39062 0.14844,0 0.32812,0.0234 0.17969,0.0156 0.39844,0.0547 l 0.008,1.47656 z"
         style="font-size:16px"
         id="path4235" />
      <path
         d="m 194.52734,127.52221 q -1.74218,0 -2.41406,0.39843 -0.67187,0.39844 -0.67187,1.35938 0,0.76562 0.5,1.21875 0.50781,0.44531 1.375,0.44531 1.19531,0 1.91406,-0.84375 0.72656,-0.85156 0.72656,-2.25781 l 0,-0.32031 -1.42969,0 z m 2.86719,-0.59375 0,4.99218 -1.4375,0 0,-1.32812 q -0.49219,0.79687 -1.22656,1.17969 -0.73438,0.375 -1.79688,0.375 -1.34375,0 -2.14062,-0.75 -0.78906,-0.75782 -0.78906,-2.02344 0,-1.47656 0.98437,-2.22656 0.99219,-0.75 2.95313,-0.75 l 2.01562,0 0,-0.14063 q 0,-0.99219 -0.65625,-1.53125 -0.64844,-0.54687 -1.82812,-0.54687 -0.75,0 -1.46094,0.17968 -0.71094,0.17969 -1.36719,0.53907 l 0,-1.32813 q 0.78906,-0.30469 1.53125,-0.45312 0.74219,-0.15625 1.44531,-0.15625 1.89844,0 2.83594,0.98437 0.9375,0.98438 0.9375,2.98438 z"
         style="font-size:16px"
         id="path4237" />
      <path
         d="m 207.20703,124.85033 q 0.53906,-0.96875 1.28906,-1.42969 0.75,-0.46093 1.76563,-0.46093 1.36719,0 2.10937,0.96093 0.74219,0.95313 0.74219,2.71875 l 0,5.28125 -1.44531,0 0,-5.23437 q 0,-1.25781 -0.44531,-1.86719 -0.44532,-0.60937 -1.35938,-0.60937 -1.11719,0 -1.76562,0.74218 -0.64844,0.74219 -0.64844,2.02344 l 0,4.94531 -1.44531,0 0,-5.23437 q 0,-1.26563 -0.44532,-1.86719 -0.44531,-0.60937 -1.375,-0.60937 -1.10156,0 -1.75,0.75 -0.64843,0.74218 -0.64843,2.01562 l 0,4.94531 -1.44532,0 0,-8.75 1.44532,0 0,1.35938 q 0.49218,-0.80469 1.17968,-1.1875 0.6875,-0.38281 1.63282,-0.38281 0.95312,0 1.61718,0.48437 0.67188,0.48438 0.99219,1.40625 z"
         style="font-size:16px"
         id="path4239" />
      <path
         d="m 221.53516,123.42846 0,1.35937 q -0.60938,-0.3125 -1.26563,-0.46875 -0.65625,-0.15625 -1.35937,-0.15625 -1.07032,0 -1.60938,0.32813 -0.53125,0.32812 -0.53125,0.98437 0,0.5 0.38281,0.78906 0.38282,0.28125 1.53907,0.53907 l 0.49218,0.10937 q 1.53125,0.32813 2.17188,0.92969 0.64844,0.59375 0.64844,1.66406 0,1.21875 -0.96875,1.92969 -0.96094,0.71094 -2.64844,0.71094 -0.70313,0 -1.46875,-0.14063 -0.75781,-0.13281 -1.60156,-0.40625 l 0,-1.48437 q 0.79687,0.41406 1.57031,0.625 0.77344,0.20312 1.53125,0.20312 1.01562,0 1.5625,-0.34375 0.54687,-0.35156 0.54687,-0.98437 0,-0.58594 -0.39843,-0.89844 -0.39063,-0.3125 -1.72657,-0.60156 l -0.5,-0.11719 q -1.33593,-0.28125 -1.92968,-0.85938 -0.59375,-0.58593 -0.59375,-1.60156 0,-1.23437 0.875,-1.90625 0.875,-0.67187 2.48437,-0.67187 0.79688,0 1.5,0.11718 0.70313,0.11719 1.29688,0.35157 z"
         style="font-size:16px"
         id="path4241" />
    </g>
    <rect
       style="display:inline;opacity:1;fill:#333333;fill-opacity:1;stroke-width:0.26458332"
       id="rect4323"
       width="51.136742"
       height="15.434028"
       x="4.804194"
       y="257.83218"
       ry="3.006619" />
    <g
       transform="translate(0,20.884435)"
       style="font-style:normal;font-weight:normal;font-size:10.58333302px;line-height:1.25;font-family:sans-serif;letter-spacing:0px;word-spacing:0px;fill:#000000;fill-opacity:1;stroke:none"
       id="flowRoot4325">
      <path
         d="m 6.056787,233.26039 q -0.4547526,0 -0.72347,0.339 -0.2666504,0.339 -0.2666504,0.92397 0,0.58291 0.2666504,0.92191 0.2687174,0.339 0.72347,0.339 0.4547526,0 0.7193359,-0.339 0.2666504,-0.339 0.2666504,-0.92191 0,-0.58497 -0.2666504,-0.92397 -0.2645833,-0.339 -0.7193359,-0.339 z m 0,-0.339 q 0.649056,0 1.0376627,0.43615 0.3886068,0.43409 0.3886068,1.16582 0,0.72967 -0.3886068,1.16582 -0.3886067,0.43409 -1.0376627,0.43409 -0.651123,0 -1.0417968,-0.43409 -0.3886067,-0.43408 -0.3886067,-1.16582 0,-0.73173 0.3886067,-1.16582 0.3906738,-0.43615 1.0417968,-0.43615 z"
         style="font-size:4.23333311px"
         id="path4244" />
      <path
         d="m 8.0804359,235.14968 0,-1.40146 0.3803385,0 0,1.38699 q 0,0.32866 0.1281576,0.49403 0.1281575,0.1633 0.3844726,0.1633 0.3079915,0 0.4857585,-0.19637 0.1798339,-0.19637 0.1798339,-0.53537 l 0,-1.31258 0.380339,0 0,2.3151 -0.380339,0 0,-0.35553 q -0.1384928,0.21084 -0.3224609,0.31419 -0.181901,0.10129 -0.4237467,0.10129 -0.398942,0 -0.6056478,-0.24805 -0.2067057,-0.24805 -0.2067057,-0.72554 z"
         style="font-size:4.23333311px"
         id="path4246" />
      <path
         d="m 11.183089,233.09089 0,0.65733 0.783414,0 0,0.29559 -0.783414,0 0,1.25677 q 0,0.28318 0.07648,0.3638 0.07855,0.0806 0.31626,0.0806 l 0.390673,0 0,0.31833 -0.390673,0 q -0.440284,0 -0.607715,-0.1633 -0.167432,-0.16536 -0.167432,-0.59944 l 0,-1.25677 -0.279053,0 0,-0.29559 0.279053,0 0,-0.65733 0.382406,0 z"
         style="font-size:4.23333311px"
         id="path4248" />
      <path
         d="m 12.836734,235.71606 0,1.22783 -0.382405,0 0,-3.19567 0.382405,0 0,0.3514 q 0.11989,-0.20671 0.301791,-0.30593 0.183968,-0.10128 0.438216,-0.10128 0.42168,0 0.684196,0.33486 0.264583,0.33486 0.264583,0.88057 0,0.5457 -0.264583,0.88056 -0.262516,0.33487 -0.684196,0.33487 -0.254248,0 -0.438216,-0.0992 -0.181901,-0.10129 -0.301791,-0.30799 z m 1.293978,-0.80822 q 0,-0.41962 -0.173633,-0.65733 -0.171565,-0.23978 -0.473356,-0.23978 -0.30179,0 -0.475423,0.23978 -0.171566,0.23771 -0.171566,0.65733 0,0.41961 0.171566,0.65939 0.173633,0.23771 0.475423,0.23771 0.301791,0 0.473356,-0.23771 0.173633,-0.23978 0.173633,-0.65939 z"
         style="font-size:4.23333311px"
         id="path4250" />
      <path
         d="m 15.116698,235.14968 0,-1.40146 0.380339,0 0,1.38699 q 0,0.32866 0.128158,0.49403 0.128157,0.1633 0.384472,0.1633 0.307992,0 0.485759,-0.19637 0.179834,-0.19637 0.179834,-0.53537 l 0,-1.31258 0.380338,0 0,2.3151 -0.380338,0 0,-0.35553 q -0.138493,0.21084 -0.322461,0.31419 -0.181901,0.10129 -0.423747,0.10129 -0.398942,0 -0.605648,-0.24805 -0.206706,-0.24805 -0.206706,-0.72554 z"
         style="font-size:4.23333311px"
         id="path4252" />
      <path
         d="m 18.219352,233.09089 0,0.65733 0.783414,0 0,0.29559 -0.783414,0 0,1.25677 q 0,0.28318 0.07648,0.3638 0.07855,0.0806 0.31626,0.0806 l 0.390673,0 0,0.31833 -0.390673,0 q -0.440284,0 -0.607715,-0.1633 -0.167432,-0.16536 -0.167432,-0.59944 l 0,-1.25677 -0.279053,0 0,-0.29559 0.279053,0 0,-0.65733 0.382406,0 z"
         style="font-size:4.23333311px"
         id="path4254" />
      <path
         d="m 20.98094,233.81643 0,0.35967 q -0.16123,-0.0827 -0.334863,-0.12403 -0.173633,-0.0413 -0.359668,-0.0413 -0.283187,0 -0.425814,0.0868 -0.14056,0.0868 -0.14056,0.26045 0,0.13229 0.101286,0.20877 0.101286,0.0744 0.40721,0.14263 l 0.130225,0.0289 q 0.405143,0.0868 0.574642,0.24598 0.171565,0.15709 0.171565,0.44028 0,0.32246 -0.256315,0.51056 -0.254248,0.18811 -0.700732,0.18811 -0.186035,0 -0.388607,-0.0372 -0.200504,-0.0351 -0.423746,-0.10749 l 0,-0.39274 q 0.210839,0.10956 0.415478,0.16537 0.204639,0.0537 0.405143,0.0537 0.268718,0 0.413412,-0.0909 0.144694,-0.093 0.144694,-0.26045 0,-0.15503 -0.10542,-0.23771 -0.103353,-0.0827 -0.45682,-0.15917 l -0.132292,-0.031 q -0.353466,-0.0744 -0.510563,-0.22738 -0.157096,-0.15503 -0.157096,-0.42374 0,-0.3266 0.23151,-0.50437 0.231511,-0.17776 0.657325,-0.17776 0.210839,0 0.396875,0.031 0.186035,0.031 0.343131,0.093 z"
         style="font-size:4.23333311px"
         id="path4256" />
    </g>
  </g>
  <g
     inkscape:groupmode="layer"
     id="layer2"
     inkscape:label="components"
     style="display:none">
    <circle
       style="display:inline;opacity:1;fill:#00ff00;fill-opacity:1;stroke-width:0.26458332"
       id="circle4261"
       cx="13.386314"
       cy="32.138748"
       r="3.7081757"
       inkscape:label="in1" />
    <circle
       r="3.7081757"
       cy="32.138748"
       cx="25.239649"
       id="circle4263"
       style="display:inline;opacity:1;fill:#00ff00;fill-opacity:1;stroke-width:0.26458332"
       inkscape:label="in2" />
    <circle
       style="display:inline;opacity:1;fill:#00ff00;fill-opacity:1;stroke-width:0.26458332"
       id="circle4265"
       cx="37.092979"
       cy="32.138748"
       r="3.7081757"
       inkscape:label="in3" />
    <circle
       r="3.7081757"
       cy="32.138748"
       cx="48.946312"
       id="circle4267"
       style="display:inline;opacity:1;fill:#00ff00;fill-opacity:1;stroke-width:0.26458332"
       inkscape:label="in4" />
    <circle
       r="3.7081757"
       cy="54.152122"
       cx="13.386314"
       id="circle4289"
       style="display:inline;opacity:1;fill:#ff00ff;fill-opacity:1;stroke-width:0.26458332"
       inkscape:label="light1" />
    <circle
       style="display:inline;opacity:1;fill:#ff00ff;fill-opacity:1;stroke-width:0.26458332"
       id="circle4291"
       cx="25.239649"
       cy="54.152122"
       r="3.7081757"
       inkscape:label="light2" />
    <circle
       r="3.7081757"
       cy="54.152122"
       cx="37.092979"
       id="circle4293"
       style="display:inline;opacity:1;fill:#ff00ff;fill-opacity:1;stroke-width:0.26458332"
       inkscape:label="light3" />
    <circle
       style="display:inline;opacity:1;fill:#ff00ff;fill-opacity:1;stroke-width:0.26458332"
       id="circle4295"
       cx="48.946312"
       cy="54.152122"
       r="3.7081757"
       inkscape:label="light4" />
    <circle
       style="display:inline;opacity:1;fill:#ff0000;fill-opacity:1;stroke-width:0.26458332"
       id="circle4299"
       cx="13.386314"
       cy="75.601051"
       r="3.7081757"
       inkscape:label="param1" />
    <circle
       r="3.7081757"
       cy="75.601051"
       cx="25.239649"
       id="circle4301"
       style="display:inline;opacity:1;fill:#ff0000;fill-opacity:1;stroke-width:0.26458332"
       inkscape:label="param2" />
    <circle
       style="display:inline;opacity:1;fill:#ff0000;fill-opacity:1;stroke-width:0.26458332"
       id="circle4303"
       cx="37.092979"
       cy="75.601051"
       r="3.7081757"
       inkscape:label="param3" />
    <circle
       r="3.7081757"
       cy="75.601051"
       cx="48.946312"
       id="circle4305"
       style="display:inline;opacity:1;fill:#ff0000;fill-opacity:1;stroke-width:0.26458332"
       inkscape:label="param4" />
    <circle
       r="3.7081757"
       cy="97.04998"
       cx="13.386314"
       id="circle4333"
       style="display:inline;opacity:1;fill:#0000ff;fill-opacity:1;stroke-width:0.26458332"
       inkscape:label="out1" />
    <circle
       style="display:inline;opacity:1;fill:#0000ff;fill-opacity:1;stroke-width:0.26458332"
       id="circle4335"
       cx="25.239649"
       cy="97.04998"
       r="3.7081757"
       inkscape:label="out2" />
    <circle
       r="3.7081757"
       cy="97.04998"
       cx="37.092979"
       id="circle4337"
       style="display:inline;opacity:1;fill:#0000ff;fill-opacity:1;stroke-width:0.26458332"
       inkscape:label="out3" />
    <circle
       style="display:inline;opacity:1;fill:#0000ff;fill-opacity:1;stroke-width:0.26458332"
       id="circle4339"
       cx="48.946312"
       cy="97.04998"
       r="3.7081757"
       inkscape:label="out4" />
  </g>
</svg>
