<?xml version="1.0" encoding="UTF-8" standalone="no"?>
<!-- Created with Inkscape (http://www.inkscape.org/) -->

<svg
   xmlns:dc="http://purl.org/dc/elements/1.1/"
   xmlns:cc="http://creativecommons.org/ns#"
   xmlns:rdf="http://www.w3.org/1999/02/22-rdf-syntax-ns#"
   xmlns:svg="http://www.w3.org/2000/svg"
   xmlns="http://www.w3.org/2000/svg"
   xmlns:sodipodi="http://sodipodi.sourceforge.net/DTD/sodipodi-0.dtd"
   xmlns:inkscape="http://www.inkscape.org/namespaces/inkscape"
   width="81.279999mm"
   height="128.5mm"
   viewBox="0 0 81.28 128.5"
   version="1.1"
   id="svg8"
   inkscape:version="0.91 r13725"
   sodipodi:docname="synth.svg">
  <sodipodi:namedview
     id="base"
     pagecolor="#ffffff"
     bordercolor="#666666"
     borderopacity="1.0"
     inkscape:pageopacity="0.0"
     inkscape:pageshadow="2"
     inkscape:zoom="1.3973438"
     inkscape:cx="85.333557"
     inkscape:cy="201.04522"
     inkscape:document-units="mm"
     inkscape:current-layer="layer2"
     showgrid="false"
     inkscape:window-width="1360"
     inkscape:window-height="724"
     inkscape:window-x="0"
     inkscape:window-y="0"
     inkscape:window-maximized="0" />
  <defs
     id="defs2" />
  <metadata
     id="metadata5">
    <rdf:RDF>
      <cc:Work
         rdf:about="">
        <dc:format>image/svg+xml</dc:format>
        <dc:type
           rdf:resource="http://purl.org/dc/dcmitype/StillImage" />
        <dc:title></dc:title>
      </cc:Work>
    </rdf:RDF>
  </metadata>
  <g
     style="display:inline"
     transform="translate(0,-168.5)"
     id="layer1"
     inkscape:groupmode="layer"
     inkscape:label="look">
    <rect
       ry="0"
       y="168.5"
       x="0"
       height="128.5"
       width="81.279999"
       id="rect886"
       style="opacity:1;fill:#eeebe6;fill-opacity:1;stroke-width:0.2466049" />
    <flowRoot
       transform="matrix(0.26458333,0,0,0.26458333,0,168.5)"
       style="font-style:normal;font-weight:normal;font-size:40px;line-height:1.25;font-family:sans-serif;letter-spacing:0px;word-spacing:0px;fill:#000000;fill-opacity:1;stroke:none"
       id="flowRoot896"
       xml:space="preserve"><flowRegion
         id="flowRegion898"><rect
           y="102.33595"
           x="167.42424"
           height="42.424244"
           width="144.69698"
           id="rect900" /></flowRegion><flowPara
         id="flowPara902">Name</flowPara></flowRoot>    <g
       transform="matrix(0.26458333,0,0,0.26458333,-28.954718,144.43351)"
       style="font-style:normal;font-weight:normal;font-size:40px;line-height:1.25;font-family:sans-serif;letter-spacing:0px;word-spacing:0px;fill:#1d1d1d;fill-opacity:1;stroke:none"
       id="flowRoot904">
      <path
         d="m 176.45703,136.70714 -7.05469,0 -1.11328,3.1875 -4.53515,0 6.48046,-17.4961 5.37891,0 6.48047,17.4961 -4.53516,0 -1.10156,-3.1875 z m -5.92969,-3.2461 4.79297,0 -2.39062,-6.96094 -2.40235,6.96094 z"
         style="font-style:normal;font-variant:normal;font-weight:bold;font-stretch:normal;font-size:24px;font-family:Mshtakan;-inkscape-font-specification:'Mshtakan Bold';fill:#1d1d1d;fill-opacity:1"
         id="path7180" />
      <path
         d="m 197.91406,124.46104 q -2.48437,1.83985 -3.41015,4.33594 -0.75,2.00391 -0.75,5.40234 0,3.22266 0.78515,5.23828 0.9375,2.37891 3.32813,4.23047 l -0.55078,0.73828 q -6.09375,-3.8789 -6.09375,-10.42968 0,-6.59766 6.15234,-10.33594 l 0.53906,0.82031 z"
         style="font-style:normal;font-variant:normal;font-weight:bold;font-stretch:normal;font-size:24px;font-family:Mshtakan;-inkscape-font-specification:'Mshtakan Bold';fill:#1d1d1d;fill-opacity:1"
         id="path7182" />
      <path
         d="m 207.51172,137.1876 q 1.34765,0 2.05078,-0.98437 0.71484,-0.98438 0.71484,-2.85938 0,-1.875 -0.71484,-2.85937 -0.70313,-0.98438 -2.05078,-0.98438 -1.34766,0 -2.07422,0.9961 -0.71484,0.98437 -0.71484,2.84765 0,1.86329 0.71484,2.85938 0.72656,0.98437 2.07422,0.98437 z m -2.78906,-8.49609 q 0.86718,-1.14844 1.92187,-1.6875 1.05469,-0.55078 2.42578,-0.55078 2.42578,0 3.98438,1.93359 1.55859,1.92188 1.55859,4.95703 0,3.03516 -1.55859,4.96875 -1.5586,1.92188 -3.98438,1.92188 -1.37109,0 -2.42578,-0.53906 -1.05469,-0.55078 -1.92187,-1.69922 l 0,1.89844 -4.19532,0 0,-18.23438 4.19532,0 0,7.03125 z"
         style="font-style:normal;font-variant:normal;font-weight:bold;font-stretch:normal;font-size:24px;font-family:Mshtakan;-inkscape-font-specification:'Mshtakan Bold';fill:#1d1d1d;fill-opacity:1"
         id="path7184" />
      <path
         d="m 223.61328,133.98839 q -1.3125,0 -1.98047,0.44531 -0.65625,0.44531 -0.65625,1.3125 0,0.79687 0.52735,1.2539 0.53906,0.44532 1.48828,0.44532 1.18359,0 1.99218,-0.84375 0.8086,-0.85547 0.8086,-2.13282 l 0,-0.48046 -2.17969,0 z m 6.41016,-1.58204 0,7.48829 -4.23047,0 0,-1.94532 q -0.84375,1.19532 -1.89844,1.7461 -1.05469,0.53906 -2.56641,0.53906 -2.03906,0 -3.3164,-1.18359 -1.26563,-1.19532 -1.26563,-3.09375 0,-2.3086 1.58203,-3.38672 1.59375,-1.07813 4.99219,-1.07813 l 2.47266,0 0,-0.32812 q 0,-0.9961 -0.78516,-1.45313 -0.78515,-0.46875 -2.44922,-0.46875 -1.34765,0 -2.50781,0.26953 -1.16016,0.26953 -2.15625,0.8086 l 0,-3.19922 q 1.34766,-0.32813 2.70703,-0.49219 1.35938,-0.17578 2.71875,-0.17578 3.55078,0 5.1211,1.40625 1.58203,1.39453 1.58203,4.54687 z"
         style="font-style:normal;font-variant:normal;font-weight:bold;font-stretch:normal;font-size:24px;font-family:Mshtakan;-inkscape-font-specification:'Mshtakan Bold';fill:#1d1d1d;fill-opacity:1"
         id="path7186" />
      <path
         d="m 244.15625,127.17979 0,3.1875 q -1.34766,-0.5625 -2.60156,-0.84375 -1.25391,-0.28125 -2.36719,-0.28125 -1.19531,0 -1.78125,0.30469 -0.57422,0.29297 -0.57422,0.91406 0,0.50391 0.43359,0.77344 0.44532,0.26953 1.58204,0.39844 l 0.73828,0.10547 q 3.22265,0.41015 4.33593,1.34765 1.11329,0.9375 1.11329,2.94141 0,2.09765 -1.54688,3.15234 -1.54687,1.05469 -4.61719,1.05469 -1.30078,0 -2.69531,-0.21094 -1.38281,-0.19922 -2.84766,-0.60937 l 0,-3.1875 q 1.25391,0.60937 2.56641,0.91406 1.32422,0.30469 2.68359,0.30469 1.23047,0 1.85157,-0.33985 0.62109,-0.33984 0.62109,-1.00781 0,-0.5625 -0.43359,-0.83203 -0.42188,-0.28125 -1.69922,-0.43359 l -0.73828,-0.0937 q -2.80078,-0.35157 -3.92578,-1.30079 -1.125,-0.94921 -1.125,-2.88281 0,-2.08594 1.42968,-3.09375 1.42969,-1.00781 4.38282,-1.00781 1.16015,0 2.4375,0.17578 1.27734,0.17578 2.77734,0.55078 z"
         style="font-style:normal;font-variant:normal;font-weight:bold;font-stretch:normal;font-size:24px;font-family:Mshtakan;-inkscape-font-specification:'Mshtakan Bold';fill:#1d1d1d;fill-opacity:1"
         id="path7188" />
      <path
         d="m 248.15234,126.76964 4.19532,0 0,13.125 -4.19532,0 0,-13.125 z m 0,-5.10938 4.19532,0 0,3.42188 -4.19532,0 0,-3.42188 z"
         style="font-style:normal;font-variant:normal;font-weight:bold;font-stretch:normal;font-size:24px;font-family:Mshtakan;-inkscape-font-specification:'Mshtakan Bold';fill:#1d1d1d;fill-opacity:1"
         id="path7190" />
      <path
         d="m 267.00781,127.17979 0,3.42188 q -0.85547,-0.58594 -1.72265,-0.86719 -0.85547,-0.28125 -1.78125,-0.28125 -1.75782,0 -2.74219,1.03125 -0.97266,1.01953 -0.97266,2.85937 0,1.83985 0.97266,2.8711 0.98437,1.01953 2.74219,1.01953 0.98437,0 1.86328,-0.29297 0.89062,-0.29297 1.64062,-0.86719 l 0,3.4336 q -0.98437,0.36328 -2.0039,0.53906 -1.00782,0.1875 -2.02735,0.1875 -3.55078,0 -5.55469,-1.81641 -2.0039,-1.82812 -2.0039,-5.07422 0,-3.24609 2.0039,-5.0625 2.00391,-1.82812 5.55469,-1.82812 1.03125,0 2.02735,0.1875 1.00781,0.17578 2.0039,0.53906 z"
         style="font-style:normal;font-variant:normal;font-weight:bold;font-stretch:normal;font-size:24px;font-family:Mshtakan;-inkscape-font-specification:'Mshtakan Bold';fill:#1d1d1d;fill-opacity:1"
         id="path7192" />
      <path
         d="m 275.91406,133.92979 q 0,3.42188 -1.54687,6 -1.45313,2.42578 -4.53516,4.52344 l -0.46875,-0.84375 q 2.40234,-2.05078 3.24609,-4.25391 0.71485,-1.86328 0.71485,-5.20312 0,-3.48047 -0.70313,-5.36719 -0.84375,-2.25 -3.3164,-4.38281 l 0.5039,-0.73828 q 2.88282,1.71093 4.47657,4.38281 1.6289,2.70703 1.6289,5.88281 z"
         style="font-style:normal;font-variant:normal;font-weight:bold;font-stretch:normal;font-size:24px;font-family:Mshtakan;-inkscape-font-specification:'Mshtakan Bold';fill:#1d1d1d;fill-opacity:1"
         id="path7194" />
      <path
         d="m 300.875,127.17979 0,3.1875 q -1.34766,-0.5625 -2.60156,-0.84375 -1.25391,-0.28125 -2.36719,-0.28125 -1.19531,0 -1.78125,0.30469 -0.57422,0.29297 -0.57422,0.91406 0,0.50391 0.43359,0.77344 0.44532,0.26953 1.58204,0.39844 l 0.73828,0.10547 q 3.22265,0.41015 4.33593,1.34765 1.11329,0.9375 1.11329,2.94141 0,2.09765 -1.54688,3.15234 -1.54687,1.05469 -4.61719,1.05469 -1.30078,0 -2.69531,-0.21094 -1.38281,-0.19922 -2.84766,-0.60937 l 0,-3.1875 q 1.25391,0.60937 2.56641,0.91406 1.32422,0.30469 2.68359,0.30469 1.23047,0 1.85157,-0.33985 0.62109,-0.33984 0.62109,-1.00781 0,-0.5625 -0.43359,-0.83203 -0.42188,-0.28125 -1.69922,-0.43359 l -0.73828,-0.0937 q -2.80078,-0.35157 -3.92578,-1.30079 -1.125,-0.94921 -1.125,-2.88281 0,-2.08594 1.42968,-3.09375 1.42969,-1.00781 4.38282,-1.00781 1.16015,0 2.4375,0.17578 1.27734,0.17578 2.77734,0.55078 z"
         style="font-style:normal;font-variant:normal;font-weight:bold;font-stretch:normal;font-size:24px;font-family:Mshtakan;-inkscape-font-specification:'Mshtakan Bold';fill:#1d1d1d;fill-opacity:1"
         id="path7196" />
      <path
         d="m 303.14844,126.76964 4.19531,0 3.52734,8.90625 3,-8.90625 4.19532,0 -5.51954,14.36718 q -0.83203,2.19141 -1.94531,3.0586 -1.10156,0.8789 -2.91797,0.8789 l -2.42578,0 0,-2.7539 1.3125,0 q 1.06641,0 1.54688,-0.33985 0.49218,-0.33984 0.76172,-1.21875 l 0.11718,-0.36328 -5.84765,-13.6289 z"
         style="font-style:normal;font-variant:normal;font-weight:bold;font-stretch:normal;font-size:24px;font-family:Mshtakan;-inkscape-font-specification:'Mshtakan Bold';fill:#1d1d1d;fill-opacity:1"
         id="path7198" />
      <path
         d="m 333.72266,131.90245 0,7.99219 -4.21875,0 0,-1.30079 0,-4.8164 q 0,-1.69922 -0.082,-2.34375 -0.0703,-0.64453 -0.25781,-0.94922 -0.24609,-0.41016 -0.66797,-0.63281 -0.42187,-0.23438 -0.96093,-0.23438 -1.3125,0 -2.0625,1.01953 -0.75,1.00782 -0.75,2.80078 l 0,6.45704 -4.19532,0 0,-13.125 4.19532,0 0,1.92187 q 0.94921,-1.14844 2.01562,-1.6875 1.06641,-0.55078 2.35547,-0.55078 2.27344,0 3.44531,1.39453 1.1836,1.39453 1.1836,4.05469 z"
         style="font-style:normal;font-variant:normal;font-weight:bold;font-stretch:normal;font-size:24px;font-family:Mshtakan;-inkscape-font-specification:'Mshtakan Bold';fill:#1d1d1d;fill-opacity:1"
         id="path7200" />
      <path
         d="m 342.21875,123.04307 0,3.72657 4.32422,0 0,3 -4.32422,0 0,5.5664 q 0,0.91406 0.36328,1.24219 0.36328,0.31641 1.44141,0.31641 l 2.15625,0 0,3 -3.59766,0 q -2.48437,0 -3.52734,-1.03125 -1.03125,-1.04297 -1.03125,-3.52735 l 0,-5.5664 -2.08594,0 0,-3 2.08594,0 0,-3.72657 4.19531,0 z"
         style="font-style:normal;font-variant:normal;font-weight:bold;font-stretch:normal;font-size:24px;font-family:Mshtakan;-inkscape-font-specification:'Mshtakan Bold';fill:#1d1d1d;fill-opacity:1"
         id="path7202" />
      <path
         d="m 362.31641,131.90245 0,7.99219 -4.21875,0 0,-1.30079 0,-4.79296 q 0,-1.72266 -0.082,-2.36719 -0.0703,-0.64453 -0.25781,-0.94922 -0.24609,-0.41016 -0.66797,-0.63281 -0.42187,-0.23438 -0.96093,-0.23438 -1.3125,0 -2.0625,1.01953 -0.75,1.00782 -0.75,2.80078 l 0,6.45704 -4.19532,0 0,-18.23438 4.19532,0 0,7.03125 q 0.94921,-1.14844 2.01562,-1.6875 1.06641,-0.55078 2.35547,-0.55078 2.27344,0 3.44531,1.39453 1.1836,1.39453 1.1836,4.05469 z"
         style="font-style:normal;font-variant:normal;font-weight:bold;font-stretch:normal;font-size:24px;font-family:Mshtakan;-inkscape-font-specification:'Mshtakan Bold';fill:#1d1d1d;fill-opacity:1"
         id="path7204" />
    </g>
    <rect
       style="display:inline;opacity:1;fill:#929292;fill-opacity:1;stroke-width:0.26458332"
       id="rect4235"
       width="11.62563"
       height="15.434028"
       x="64.958427"
       y="272.48389"
       ry="3.006619" />
    <g
       transform="translate(0,2.8222221)"
       style="font-style:normal;font-weight:normal;font-size:11.28888893px;line-height:125%;font-family:sans-serif;letter-spacing:0px;word-spacing:0px;fill:#000000;fill-opacity:1;stroke:none;stroke-width:1px;stroke-linecap:butt;stroke-linejoin:miter;stroke-opacity:1"
       id="flowRoot4241">
      <path
         d="m 68.531396,271.78383 q -0.454752,0 -0.72347,0.339 -0.26665,0.33899 -0.26665,0.92397 0,0.58291 0.26665,0.92191 0.268718,0.339 0.72347,0.339 0.454753,0 0.719336,-0.339 0.266651,-0.339 0.266651,-0.92191 0,-0.58498 -0.266651,-0.92397 -0.264583,-0.339 -0.719336,-0.339 z m 0,-0.339 q 0.649056,0 1.037663,0.43615 0.388607,0.43408 0.388607,1.16582 0,0.72967 -0.388607,1.16582 -0.388607,0.43408 -1.037663,0.43408 -0.651123,0 -1.041796,-0.43408 -0.388607,-0.43408 -0.388607,-1.16582 0,-0.73174 0.388607,-1.16582 0.390673,-0.43615 1.041796,-0.43615 z"
         style="font-size:4.23333311px;fill:#000000"
         id="path7282" />
      <path
         d="m 70.555045,273.67312 0,-1.40147 0.380339,0 0,1.387 q 0,0.32866 0.128157,0.49403 0.128158,0.16329 0.384473,0.16329 0.307992,0 0.485758,-0.19637 0.179834,-0.19637 0.179834,-0.53536 l 0,-1.31259 0.380339,0 0,2.31511 -0.380339,0 0,-0.35554 q -0.138492,0.21084 -0.322461,0.3142 -0.181901,0.10128 -0.423746,0.10128 -0.398942,0 -0.605648,-0.24804 -0.206706,-0.24805 -0.206706,-0.72554 z"
         style="font-size:4.23333311px;fill:#000000"
         id="path7284" />
      <path
         d="m 73.657698,271.61433 0,0.65732 0.783415,0 0,0.29559 -0.783415,0 0,1.25677 q 0,0.28319 0.07648,0.36381 0.07855,0.0806 0.31626,0.0806 l 0.390674,0 0,0.31833 -0.390674,0 q -0.440283,0 -0.607715,-0.1633 -0.167431,-0.16536 -0.167431,-0.59945 l 0,-1.25677 -0.279053,0 0,-0.29559 0.279053,0 0,-0.65732 0.382405,0 z"
         style="font-size:4.23333311px;fill:#000000"
         id="path7286" />
    </g>
    <g
       transform="matrix(0.28222222,0,0,0.28222222,40.269751,76.810313)"
       style="font-style:normal;font-weight:normal;font-size:40px;line-height:125%;font-family:sans-serif;letter-spacing:0px;word-spacing:0px;fill:#000000;fill-opacity:1;stroke:none;stroke-width:1px;stroke-linecap:butt;stroke-linejoin:miter;stroke-opacity:1"
       id="flowRoot4249">
      <path
         d="m -105.91699,423.03327 -4.17481,-10.93506 1.54541,0 3.46436,9.20654 3.47168,-9.20654 1.53808,0 -4.16748,10.93506 -1.67724,0 z"
         style="font-size:15px;fill:#000000"
         id="path7207" />
      <path
         d="m -96.146484,412.09821 1.245117,0 -3.808594,12.32666 -1.245117,0 3.808594,-12.32666 z"
         style="font-size:15px;fill:#000000"
         id="path7209" />
      <path
         d="m -88.976074,413.10163 q -1.611328,0 -2.563477,1.20117 -0.944824,1.20117 -0.944824,3.27393 0,2.06543 0.944824,3.2666 0.952149,1.20117 2.563477,1.20117 1.611328,0 2.548828,-1.20117 0.944824,-1.20117 0.944824,-3.2666 0,-2.07276 -0.944824,-3.27393 -0.9375,-1.20117 -2.548828,-1.20117 z m 0,-1.20117 q 2.299804,0 3.676758,1.54541 1.376953,1.53808 1.376953,4.13086 0,2.58544 -1.376953,4.13086 -1.376954,1.53808 -3.676758,1.53808 -2.307129,0 -3.691406,-1.53808 -1.376954,-1.53809 -1.376954,-4.13086 0,-2.59278 1.376954,-4.13086 1.384277,-1.54541 3.691406,-1.54541 z"
         style="font-size:15px;fill:#000000"
         id="path7211" />
      <path
         d="m -73.419434,412.9405 0,1.56005 q -0.74707,-0.6958 -1.596679,-1.04004 -0.842285,-0.34423 -1.794434,-0.34423 -1.875,0 -2.871094,1.1499 -0.996093,1.14258 -0.996093,3.31055 0,2.16064 0.996093,3.31054 0.996094,1.14258 2.871094,1.14258 0.952149,0 1.794434,-0.34424 0.849609,-0.34424 1.596679,-1.04004 l 0,1.54541 q -0.776367,0.52735 -1.647949,0.79102 -0.864258,0.26367 -1.831054,0.26367 -2.482911,0 -3.911133,-1.51611 -1.428223,-1.52344 -1.428223,-4.15283 0,-2.63672 1.428223,-4.15284 1.428222,-1.52343 3.911133,-1.52343 0.981445,0 1.845703,0.26367 0.871582,0.25635 1.6333,0.77637 z"
         style="font-size:15px;fill:#000000"
         id="path7213" />
      <path
         d="m -72.635742,412.09821 9.250488,0 0,1.24512 -3.881836,0 0,9.68994 -1.486816,0 0,-9.68994 -3.881836,0 0,-1.24512 z"
         style="font-size:15px;fill:#000000"
         id="path7215" />
    </g>
    <g
       transform="translate(-33.327407,39.131232)"
       style="font-style:normal;font-weight:normal;font-size:11.28888893px;line-height:125%;font-family:sans-serif;letter-spacing:0px;word-spacing:0px;fill:#000000;fill-opacity:1;stroke:none;stroke-width:1px;stroke-linecap:butt;stroke-linejoin:miter;stroke-opacity:1"
       id="flowRoot4257">
      <path
         d="m 42.082389,199.47348 -1.178222,-3.08612 0.436149,0 0.977718,2.59829 0.979785,-2.59829 0.434082,0 -1.176156,3.08612 -0.473356,0 z"
         style="font-size:4.23333311px;fill:#000000"
         id="path7265" />
      <path
         d="m 45.813427,198.22084 0,0.18604 -1.74873,0 q 0.02481,0.39274 0.235645,0.59944 0.212906,0.20464 0.591178,0.20464 0.219108,0 0.423747,-0.0537 0.206705,-0.0538 0.409277,-0.16123 l 0,0.35967 q -0.204639,0.0868 -0.419613,0.13229 -0.214974,0.0455 -0.436149,0.0455 -0.553971,0 -0.878499,-0.32246 -0.322461,-0.32246 -0.322461,-0.8723 0,-0.56844 0.305925,-0.90123 0.307991,-0.33487 0.828889,-0.33487 0.467155,0 0.73794,0.30179 0.272851,0.29973 0.272851,0.81649 z m -0.380338,-0.11162 q -0.0041,-0.31213 -0.1757,-0.49816 -0.169499,-0.18604 -0.450618,-0.18604 -0.318327,0 -0.510564,0.17984 -0.190169,0.17983 -0.219108,0.50643 l 1.35599,-0.002 z"
         style="font-size:4.23333311px;fill:#000000"
         id="path7267" />
      <path
         d="m 46.429411,196.25714 0.380338,0 0,3.21634 -0.380338,0 0,-3.21634 z"
         style="font-size:4.23333311px;fill:#000000"
         id="path7269" />
      <path
         d="m 48.500602,197.42502 q -0.305925,0 -0.483692,0.23978 -0.177767,0.23771 -0.177767,0.65319 0,0.41548 0.1757,0.65526 0.177767,0.23771 0.485759,0.23771 0.303857,0 0.481624,-0.23978 0.177767,-0.23978 0.177767,-0.65319 0,-0.41134 -0.177767,-0.65112 -0.177767,-0.24185 -0.481624,-0.24185 z m 0,-0.32246 q 0.496094,0 0.77928,0.32246 0.283187,0.32246 0.283187,0.89297 0,0.56844 -0.283187,0.89297 -0.283186,0.32246 -0.77928,0.32246 -0.498161,0 -0.781348,-0.32246 -0.28112,-0.32453 -0.28112,-0.89297 0,-0.57051 0.28112,-0.89297 0.283187,-0.32246 0.781348,-0.32246 z"
         style="font-size:4.23333311px;fill:#000000"
         id="path7271" />
      <path
         d="m 51.857503,197.24726 0,0.35553 q -0.16123,-0.0889 -0.324528,-0.13229 -0.16123,-0.0455 -0.326595,-0.0455 -0.370003,0 -0.574642,0.23565 -0.204639,0.23358 -0.204639,0.65732 0,0.42375 0.204639,0.65939 0.204639,0.23358 0.574642,0.23358 0.165365,0 0.326595,-0.0434 0.163298,-0.0455 0.324528,-0.13436 l 0,0.3514 q -0.159163,0.0744 -0.330729,0.11163 -0.169499,0.0372 -0.361735,0.0372 -0.522966,0 -0.830957,-0.32866 -0.307992,-0.32866 -0.307992,-0.88677 0,-0.56637 0.310059,-0.8909 0.312126,-0.32453 0.853695,-0.32453 0.175699,0 0.343131,0.0372 0.167432,0.0351 0.324528,0.10749 z"
         style="font-size:4.23333311px;fill:#000000"
         id="path7273" />
      <path
         d="m 52.514827,197.15837 0.380338,0 0,2.31511 -0.380338,0 0,-2.31511 z m 0,-0.90123 0.380338,0 0,0.48162 -0.380338,0 0,-0.48162 z"
         style="font-size:4.23333311px;fill:#000000"
         id="path7275" />
      <path
         d="m 54.06512,196.50105 0,0.65732 0.783414,0 0,0.29559 -0.783414,0 0,1.25677 q 0,0.28319 0.07648,0.36381 0.07855,0.0806 0.31626,0.0806 l 0.390673,0 0,0.31833 -0.390673,0 q -0.440284,0 -0.607715,-0.1633 -0.167432,-0.16536 -0.167432,-0.59945 l 0,-1.25677 -0.279053,0 0,-0.29559 0.279053,0 0,-0.65732 0.382406,0 z"
         style="font-size:4.23333311px;fill:#000000"
         id="path7277" />
      <path
         d="m 56.314078,199.68845 q -0.161231,0.41341 -0.314193,0.5395 -0.152962,0.12609 -0.409277,0.12609 l -0.303858,0 0,-0.31832 0.223243,0 q 0.157096,0 0.243912,-0.0744 0.08682,-0.0744 0.192237,-0.3514 l 0.06821,-0.17363 -0.936377,-2.2779 0.403076,0 0.72347,1.81075 0.72347,-1.81075 0.403076,0 -1.016992,2.53008 z"
         style="font-size:4.23333311px;fill:#000000"
         id="path7279" />
    </g>
    <g
       transform="translate(-30.163776,22.354059)"
       style="font-style:normal;font-weight:normal;font-size:11.28888893px;line-height:125%;font-family:sans-serif;letter-spacing:0px;word-spacing:0px;fill:#000000;fill-opacity:1;stroke:none;stroke-width:1px;stroke-linecap:butt;stroke-linejoin:miter;stroke-opacity:1"
       id="flowRoot4265">
      <path
         d="m 43.390836,199.03319 0,-0.82889 -0.682128,0 0,-0.34313 1.09554,0 0,1.32499 q -0.241846,0.17156 -0.533301,0.26045 -0.291455,0.0868 -0.622184,0.0868 -0.72347,0 -1.132747,-0.42168 -0.407211,-0.42374 -0.407211,-1.17822 0,-0.75654 0.407211,-1.17822 0.409277,-0.42375 1.132747,-0.42375 0.30179,0 0.572575,0.0744 0.272851,0.0744 0.502295,0.21911 l 0,0.44442 q -0.231511,-0.19637 -0.49196,-0.29559 -0.260449,-0.0992 -0.54777,-0.0992 -0.566374,0 -0.851628,0.31626 -0.283186,0.31626 -0.283186,0.94258 0,0.62425 0.283186,0.94051 0.285254,0.31626 0.851628,0.31626 0.221175,0 0.394808,-0.0372 0.173633,-0.0393 0.312125,-0.11989 z"
         style="font-size:4.23333311px;fill:#000000"
         id="path7256" />
      <path
         d="m 45.604655,198.30972 q -0.460954,0 -0.638721,0.10542 -0.177767,0.10542 -0.177767,0.35967 0,0.20257 0.132292,0.32246 0.134359,0.11783 0.363802,0.11783 0.31626,0 0.506429,-0.22325 0.192236,-0.22531 0.192236,-0.59738 l 0,-0.0848 -0.378271,0 z m 0.75861,-0.15709 0,1.32085 -0.380339,0 0,-0.3514 q -0.130224,0.21084 -0.324528,0.31212 -0.194303,0.0992 -0.475423,0.0992 -0.355534,0 -0.566374,-0.19844 -0.208772,-0.2005 -0.208772,-0.53536 0,-0.39068 0.260449,-0.58911 0.262516,-0.19844 0.781348,-0.19844 l 0.5333,0 0,-0.0372 q 0,-0.26252 -0.173633,-0.40514 -0.171565,-0.1447 -0.483691,-0.1447 -0.198437,0 -0.38654,0.0476 -0.188102,0.0475 -0.361735,0.14262 l 0,-0.3514 q 0.208773,-0.0806 0.405144,-0.11989 0.19637,-0.0413 0.382405,-0.0413 0.502295,0 0.750342,0.26045 0.248047,0.26045 0.248047,0.78962 z"
         style="font-size:4.23333311px;fill:#000000"
         id="path7258" />
      <path
         d="m 47.533219,196.50105 0,0.65732 0.783415,0 0,0.29559 -0.783415,0 0,1.25677 q 0,0.28319 0.07648,0.36381 0.07855,0.0806 0.31626,0.0806 l 0.390674,0 0,0.31833 -0.390674,0 q -0.440283,0 -0.607715,-0.1633 -0.167431,-0.16536 -0.167431,-0.59945 l 0,-1.25677 -0.279053,0 0,-0.29559 0.279053,0 0,-0.65732 0.382405,0 z"
         style="font-size:4.23333311px;fill:#000000"
         id="path7260" />
      <path
         d="m 50.79917,198.22084 0,0.18604 -1.748731,0 q 0.02481,0.39274 0.235645,0.59944 0.212907,0.20464 0.591178,0.20464 0.219108,0 0.423747,-0.0537 0.206705,-0.0538 0.409277,-0.16123 l 0,0.35967 q -0.204639,0.0868 -0.419613,0.13229 -0.214973,0.0455 -0.436149,0.0455 -0.553971,0 -0.878499,-0.32246 -0.322461,-0.32246 -0.322461,-0.8723 0,-0.56844 0.305925,-0.90123 0.307991,-0.33487 0.82889,-0.33487 0.467155,0 0.737939,0.30179 0.272852,0.29973 0.272852,0.81649 z m -0.380339,-0.11162 q -0.0041,-0.31213 -0.1757,-0.49816 -0.169499,-0.18604 -0.450618,-0.18604 -0.318327,0 -0.510563,0.17984 -0.19017,0.17983 -0.219108,0.50643 l 1.355989,-0.002 z"
         style="font-size:4.23333311px;fill:#000000"
         id="path7262" />
    </g>
    <g
       transform="translate(24.814996,-2.8501274)"
       style="font-style:normal;font-weight:normal;font-size:11.28888893px;line-height:125%;font-family:sans-serif;letter-spacing:0px;word-spacing:0px;fill:#000000;fill-opacity:1;stroke:none;stroke-width:1px;stroke-linecap:butt;stroke-linejoin:miter;stroke-opacity:1"
       id="flowRoot4273">
      <path
         d="m 35.133805,196.44534 0,2.39985 0.504362,0 q 0.638721,0 0.93431,-0.28939 0.297656,-0.28939 0.297656,-0.91364 0,-0.62011 -0.297656,-0.90744 -0.295589,-0.28938 -0.93431,-0.28938 l -0.504362,0 z m -0.417545,-0.34314 0.857828,0 q 0.897103,0 1.316716,0.37414 0.419613,0.37207 0.419613,1.16582 0,0.79789 -0.42168,1.17202 -0.42168,0.37414 -1.314649,0.37414 l -0.857828,0 0,-3.08612 z"
         style="font-size:4.23333311px;fill:#000000"
         id="path7231" />
      <path
         d="m 39.937646,197.93568 0,0.18604 -1.74873,0 q 0.0248,0.39274 0.235644,0.59945 0.212907,0.20463 0.591179,0.20463 0.219108,0 0.423746,-0.0537 0.206706,-0.0537 0.409278,-0.16123 l 0,0.35967 q -0.204639,0.0868 -0.419613,0.13229 -0.214974,0.0455 -0.436149,0.0455 -0.553971,0 -0.878499,-0.32247 -0.322461,-0.32246 -0.322461,-0.87229 0,-0.56844 0.305924,-0.90124 0.307992,-0.33486 0.82889,-0.33486 0.467155,0 0.73794,0.30179 0.272851,0.29972 0.272851,0.81648 z m -0.380338,-0.11162 q -0.0041,-0.31212 -0.1757,-0.49816 -0.169499,-0.18603 -0.450619,-0.18603 -0.318327,0 -0.510563,0.17983 -0.190169,0.17984 -0.219108,0.50643 l 1.35599,-0.002 z"
         style="font-size:4.23333311px;fill:#000000"
         id="path7233" />
      <path
         d="m 40.929833,196.21589 0,0.65733 0.783415,0 0,0.29559 -0.783415,0 0,1.25677 q 0,0.28318 0.07648,0.3638 0.07855,0.0806 0.31626,0.0806 l 0.390674,0 0,0.31833 -0.390674,0 q -0.440283,0 -0.607715,-0.1633 -0.167431,-0.16536 -0.167431,-0.59944 l 0,-1.25677 -0.279053,0 0,-0.29559 0.279053,0 0,-0.65733 0.382405,0 z"
         style="font-size:4.23333311px;fill:#000000"
         id="path7235" />
      <path
         d="m 42.176269,198.27468 0,-1.40146 0.380339,0 0,1.38699 q 0,0.32866 0.128157,0.49403 0.128158,0.1633 0.384473,0.1633 0.307991,0 0.485758,-0.19637 0.179834,-0.19637 0.179834,-0.53537 l 0,-1.31258 0.380339,0 0,2.3151 -0.380339,0 0,-0.35553 q -0.138492,0.21084 -0.322461,0.31419 -0.181901,0.10129 -0.423746,0.10129 -0.398942,0 -0.605648,-0.24805 -0.206706,-0.24805 -0.206706,-0.72554 z"
         style="font-size:4.23333311px;fill:#000000"
         id="path7237" />
      <path
         d="m 46.827148,197.79099 0,1.39733 -0.380339,0 0,-1.38493 q 0,-0.32866 -0.128157,-0.49196 -0.128158,-0.16329 -0.384473,-0.16329 -0.307991,0 -0.485758,0.19637 -0.177767,0.19637 -0.177767,0.53536 l 0,1.30845 -0.382406,0 0,-2.3151 0.382406,0 0,0.35967 q 0.136426,-0.20878 0.320394,-0.31213 0.186035,-0.10335 0.427881,-0.10335 0.398942,0 0.60358,0.24804 0.204639,0.24598 0.204639,0.72554 z"
         style="font-size:4.23333311px;fill:#000000"
         id="path7239" />
      <path
         d="m 49.570132,197.93568 0,0.18604 -1.74873,0 q 0.02481,0.39274 0.235644,0.59945 0.212907,0.20463 0.591179,0.20463 0.219108,0 0.423746,-0.0537 0.206706,-0.0537 0.409278,-0.16123 l 0,0.35967 q -0.204639,0.0868 -0.419613,0.13229 -0.214974,0.0455 -0.436149,0.0455 -0.553971,0 -0.878499,-0.32247 -0.322461,-0.32246 -0.322461,-0.87229 0,-0.56844 0.305924,-0.90124 0.307992,-0.33486 0.82889,-0.33486 0.467155,0 0.73794,0.30179 0.272851,0.29972 0.272851,0.81648 z m -0.380338,-0.11162 q -0.0041,-0.31212 -0.1757,-0.49816 -0.169499,-0.18603 -0.450619,-0.18603 -0.318326,0 -0.510563,0.17983 -0.190169,0.17984 -0.219108,0.50643 l 1.35599,-0.002 z"
         style="font-size:4.23333311px;fill:#000000"
         id="path7241" />
    </g>
    <g
       transform="translate(0.32039362,-2.8222221)"
       style="font-style:normal;font-weight:normal;font-size:11.28888893px;line-height:125%;font-family:sans-serif;letter-spacing:0px;word-spacing:0px;fill:#000000;fill-opacity:1;stroke:none;stroke-width:1px;stroke-linecap:butt;stroke-linejoin:miter;stroke-opacity:1"
       id="flowRoot4281">
      <path
         d="m 35.968896,196.38539 q -0.454752,0 -0.72347,0.339 -0.26665,0.339 -0.26665,0.92397 0,0.58291 0.26665,0.92191 0.268718,0.339 0.72347,0.339 0.454753,0 0.719336,-0.339 0.266651,-0.339 0.266651,-0.92191 0,-0.58497 -0.266651,-0.92397 -0.264583,-0.339 -0.719336,-0.339 z m 0,-0.339 q 0.649056,0 1.037663,0.43615 0.388607,0.43409 0.388607,1.16582 0,0.72967 -0.388607,1.16582 -0.388607,0.43409 -1.037663,0.43409 -0.651123,0 -1.041796,-0.43409 -0.388607,-0.43408 -0.388607,-1.16582 0,-0.73173 0.388607,-1.16582 0.390673,-0.43615 1.041796,-0.43615 z"
         style="font-style:normal;font-variant:normal;font-weight:normal;font-stretch:normal;font-size:4.23333311px;font-family:Wingdings;-inkscape-font-specification:Wingdings;fill:#000000"
         id="path7218" />
      <path
         d="m 39.697867,196.9621 0,0.35553 q -0.16123,-0.0889 -0.324528,-0.13229 -0.16123,-0.0455 -0.326595,-0.0455 -0.370003,0 -0.574641,0.23564 -0.204639,0.23358 -0.204639,0.65733 0,0.42374 0.204639,0.65939 0.204638,0.23357 0.574641,0.23357 0.165365,0 0.326595,-0.0434 0.163298,-0.0455 0.324528,-0.13436 l 0,0.3514 q -0.159163,0.0744 -0.330729,0.11162 -0.169498,0.0372 -0.361735,0.0372 -0.522965,0 -0.830957,-0.32867 -0.307991,-0.32866 -0.307991,-0.88676 0,-0.56638 0.310058,-0.89091 0.312126,-0.32452 0.853695,-0.32452 0.1757,0 0.343131,0.0372 0.167432,0.0351 0.324528,0.10749 z"
         style="font-style:normal;font-variant:normal;font-weight:normal;font-stretch:normal;font-size:4.23333311px;font-family:Wingdings;-inkscape-font-specification:Wingdings;fill:#000000"
         id="path7220" />
      <path
         d="m 40.731396,196.21589 0,0.65733 0.783415,0 0,0.29559 -0.783415,0 0,1.25677 q 0,0.28318 0.07648,0.3638 0.07855,0.0806 0.31626,0.0806 l 0.390674,0 0,0.31833 -0.390674,0 q -0.440283,0 -0.607715,-0.1633 -0.167431,-0.16536 -0.167431,-0.59944 l 0,-1.25677 -0.279053,0 0,-0.29559 0.279053,0 0,-0.65733 0.382405,0 z"
         style="font-style:normal;font-variant:normal;font-weight:normal;font-stretch:normal;font-size:4.23333311px;font-family:Wingdings;-inkscape-font-specification:Wingdings;fill:#000000"
         id="path7222" />
      <path
         d="m 43.069238,198.02457 q -0.460954,0 -0.638721,0.10542 -0.177767,0.10542 -0.177767,0.35967 0,0.20257 0.132292,0.32246 0.134359,0.11782 0.363802,0.11782 0.31626,0 0.506429,-0.22324 0.192236,-0.22531 0.192236,-0.59738 l 0,-0.0847 -0.378271,0 z m 0.75861,-0.1571 0,1.32085 -0.380339,0 0,-0.3514 q -0.130224,0.21084 -0.324528,0.31213 -0.194303,0.0992 -0.475423,0.0992 -0.355534,0 -0.566374,-0.19844 -0.208772,-0.20051 -0.208772,-0.53537 0,-0.39067 0.260449,-0.58911 0.262516,-0.19844 0.781347,-0.19844 l 0.533301,0 0,-0.0372 q 0,-0.26251 -0.173633,-0.40514 -0.171565,-0.14469 -0.483691,-0.14469 -0.198437,0 -0.38654,0.0475 -0.188102,0.0475 -0.361735,0.14263 l 0,-0.3514 q 0.208773,-0.0806 0.405144,-0.11989 0.19637,-0.0413 0.382405,-0.0413 0.502295,0 0.750342,0.26045 0.248047,0.26045 0.248047,0.78961 z"
         style="font-style:normal;font-variant:normal;font-weight:normal;font-stretch:normal;font-size:4.23333311px;font-family:Wingdings;-inkscape-font-specification:Wingdings;fill:#000000"
         id="path7224" />
      <path
         d="m 44.348746,196.87322 0.403076,0 0.72347,1.94303 0.72347,-1.94303 0.403076,0 -0.868164,2.3151 -0.516764,0 -0.868164,-2.3151 z"
         style="font-style:normal;font-variant:normal;font-weight:normal;font-stretch:normal;font-size:4.23333311px;font-family:Wingdings;-inkscape-font-specification:Wingdings;fill:#000000"
         id="path7226" />
      <path
         d="m 49.107112,197.93568 0,0.18604 -1.74873,0 q 0.0248,0.39274 0.235644,0.59945 0.212907,0.20463 0.591178,0.20463 0.219108,0 0.423747,-0.0537 0.206706,-0.0537 0.409277,-0.16123 l 0,0.35967 q -0.204638,0.0868 -0.419612,0.13229 -0.214974,0.0455 -0.436149,0.0455 -0.553972,0 -0.8785,-0.32247 -0.32246,-0.32246 -0.32246,-0.87229 0,-0.56844 0.305924,-0.90124 0.307992,-0.33486 0.82889,-0.33486 0.467155,0 0.737939,0.30179 0.272852,0.29972 0.272852,0.81648 z m -0.380339,-0.11162 q -0.0041,-0.31212 -0.175699,-0.49816 -0.169499,-0.18603 -0.450619,-0.18603 -0.318327,0 -0.510563,0.17983 -0.190169,0.17984 -0.219108,0.50643 l 1.355989,-0.002 z"
         style="font-style:normal;font-variant:normal;font-weight:normal;font-stretch:normal;font-size:4.23333311px;font-family:Wingdings;-inkscape-font-specification:Wingdings;fill:#000000"
         id="path7228" />
    </g>
    <g
       transform="translate(-2.8358514,22.356126)"
       style="font-style:normal;font-weight:normal;font-size:11.28888893px;line-height:125%;font-family:sans-serif;letter-spacing:0px;word-spacing:0px;fill:#000000;fill-opacity:1;stroke:none;stroke-width:1px;stroke-linecap:butt;stroke-linejoin:miter;stroke-opacity:1"
       id="flowRoot4329">
      <path
         d="m 42.318034,196.79871 -0.566374,1.53582 1.134815,0 -0.568441,-1.53582 z m -0.235645,-0.41135 0.473356,0 1.176156,3.08612 -0.434082,0 -0.28112,-0.79169 -1.391129,0 -0.28112,0.79169 -0.440283,0 1.178222,-3.08612 z"
         style="font-size:4.23333311px;fill:#000000"
         id="path7253" />
    </g>
    <g
       transform="translate(7.5236656,22.356126)"
       style="font-style:normal;font-weight:normal;font-size:11.28888893px;line-height:125%;font-family:sans-serif;letter-spacing:0px;word-spacing:0px;fill:#000000;fill-opacity:1;stroke:none;stroke-width:1px;stroke-linecap:butt;stroke-linejoin:miter;stroke-opacity:1"
       id="flowRoot4337">
      <path
         d="m 41.704118,196.73049 0,2.39986 0.504362,0 q 0.63872,0 0.93431,-0.28939 0.297656,-0.28939 0.297656,-0.91364 0,-0.62012 -0.297656,-0.90744 -0.29559,-0.28939 -0.93431,-0.28939 l -0.504362,0 z m -0.417546,-0.34313 0.857829,0 q 0.897103,0 1.316715,0.37414 0.419613,0.37207 0.419613,1.16582 0,0.79788 -0.42168,1.17202 -0.421679,0.37414 -1.314648,0.37414 l -0.857829,0 0,-3.08612 z"
         style="font-size:4.23333311px;fill:#000000"
         id="path7250" />
    </g>
    <g
       transform="translate(18.496066,22.354059)"
       style="font-style:normal;font-weight:normal;font-size:11.28888893px;line-height:125%;font-family:sans-serif;letter-spacing:0px;word-spacing:0px;fill:#000000;fill-opacity:1;stroke:none;stroke-width:1px;stroke-linecap:butt;stroke-linejoin:miter;stroke-opacity:1"
       id="flowRoot4345">
      <path
         d="m 43.136588,196.48865 0,0.40721 q -0.237711,-0.11369 -0.448551,-0.1695 -0.21084,-0.0558 -0.40721,-0.0558 -0.341065,0 -0.5271,0.13229 -0.183968,0.13229 -0.183968,0.3762 0,0.20464 0.121956,0.31006 0.124024,0.10336 0.467155,0.16743 l 0.252181,0.0517 q 0.467155,0.0889 0.68833,0.31419 0.223243,0.22325 0.223243,0.59945 0,0.44855 -0.301791,0.68006 -0.299723,0.23151 -0.880566,0.23151 -0.219108,0 -0.467155,-0.0496 -0.24598,-0.0496 -0.510563,-0.14676 l 0,-0.42995 q 0.254248,0.14263 0.498161,0.21498 0.243912,0.0723 0.479557,0.0723 0.357601,0 0.551904,-0.14056 0.194304,-0.14056 0.194304,-0.401 0,-0.22738 -0.14056,-0.35554 -0.138493,-0.12816 -0.45682,-0.19223 l -0.254248,-0.0496 q -0.467155,-0.093 -0.675928,-0.29146 -0.208773,-0.19844 -0.208773,-0.5519 0,-0.40928 0.287321,-0.64492 0.289388,-0.23565 0.795817,-0.23565 0.217041,0 0.442351,0.0393 0.225309,0.0393 0.460953,0.11783 z"
         style="font-size:4.23333311px;fill:#000000"
         id="path7247" />
    </g>
    <g
       transform="translate(28.869016,22.356126)"
       style="font-style:normal;font-weight:normal;font-size:11.28888893px;line-height:125%;font-family:sans-serif;letter-spacing:0px;word-spacing:0px;fill:#000000;fill-opacity:1;stroke:none;stroke-width:1px;stroke-linecap:butt;stroke-linejoin:miter;stroke-opacity:1"
       id="flowRoot4353">
      <path
         d="m 42.750049,198.02654 q 0.134358,0.0455 0.260449,0.1943 0.128157,0.14883 0.256315,0.40928 l 0.423747,0.84336 -0.448552,0 -0.394808,-0.79169 q -0.152962,-0.31005 -0.297656,-0.41134 -0.142627,-0.10129 -0.390674,-0.10129 l -0.454752,0 0,1.30432 -0.417546,0 0,-3.08612 0.942578,0 q 0.529167,0 0.789616,0.22118 0.260449,0.22117 0.260449,0.66766 0,0.29145 -0.136425,0.48369 -0.134359,0.19223 -0.392741,0.26665 z m -1.045931,-1.29605 0,1.09554 0.525032,0 q 0.301791,0 0.454753,-0.13849 0.155029,-0.14056 0.155029,-0.41134 0,-0.27079 -0.155029,-0.40721 -0.152962,-0.1385 -0.454753,-0.1385 l -0.525032,0 z"
         style="font-size:4.23333311px;fill:#000000"
         id="path7244" />
    </g>
    <g
       transform="translate(-24.053096,63.409733)"
       style="font-style:normal;font-weight:normal;font-size:11.28888893px;line-height:125%;font-family:sans-serif;letter-spacing:0px;word-spacing:0px;fill:#000000;fill-opacity:1;stroke:none;stroke-width:1px;stroke-linecap:butt;stroke-linejoin:miter;stroke-opacity:1"
       id="flowRoot4363">
      <path
         d="m 34.291479,195.81884 1.95802,0 0,0.26355 -0.821655,0 0,2.05104 -0.314709,0 0,-2.05104 -0.821656,0 0,-0.26355 z"
         style="font-size:3.17499995px;fill:#000000"
         id="path7302" />
      <path
         d="m 37.091309,196.66375 q -0.04806,-0.0279 -0.10542,-0.0403 -0.05581,-0.0139 -0.124024,-0.0139 -0.241846,0 -0.37207,0.15813 -0.128674,0.15658 -0.128674,0.45114 l 0,0.91467 -0.286805,0 0,-1.73633 0.286805,0 0,0.26975 q 0.08992,-0.15813 0.234094,-0.23409 0.144177,-0.0775 0.350366,-0.0775 0.02946,0 0.06511,0.005 0.03566,0.003 0.07906,0.0109 l 0.0016,0.293 z"
         style="font-size:3.17499995px;fill:#000000"
         id="path7304" />
      <path
         d="m 38.810583,197.19395 0,0.13953 -1.311547,0 q 0.0186,0.29455 0.176733,0.44958 0.15968,0.15348 0.443384,0.15348 0.164331,0 0.31781,-0.0403 0.155029,-0.0403 0.306958,-0.12092 l 0,0.26975 q -0.153479,0.0651 -0.31471,0.0992 -0.16123,0.0341 -0.327111,0.0341 -0.415479,0 -0.658875,-0.24185 -0.241846,-0.24184 -0.241846,-0.65422 0,-0.42633 0.229444,-0.67593 0.230993,-0.25115 0.621667,-0.25115 0.350366,0 0.553455,0.22635 0.204638,0.22479 0.204638,0.61236 z m -0.285253,-0.0837 q -0.0031,-0.2341 -0.131775,-0.37363 -0.127124,-0.13952 -0.337964,-0.13952 -0.238745,0 -0.382923,0.13487 -0.142627,0.13488 -0.164331,0.37983 l 1.016993,-0.002 z"
         style="font-size:3.17499995px;fill:#000000"
         id="path7306" />
      <path
         d="m 40.627527,196.73041 q 0.10697,-0.19223 0.255798,-0.2837 0.148828,-0.0915 0.350366,-0.0915 0.271302,0 0.418579,0.19069 0.147278,0.18913 0.147278,0.5395 l 0,1.048 -0.286804,0 0,-1.0387 q 0,-0.24959 -0.08837,-0.37052 -0.08837,-0.12092 -0.269751,-0.12092 -0.221692,0 -0.350366,0.14728 -0.128674,0.14728 -0.128674,0.40152 l 0,0.98134 -0.286804,0 0,-1.0387 q 0,-0.25115 -0.08837,-0.37052 -0.08837,-0.12092 -0.272852,-0.12092 -0.218591,0 -0.347265,0.14883 -0.128675,0.14728 -0.128675,0.39997 l 0,0.98134 -0.286804,0 0,-1.73633 0.286804,0 0,0.26975 q 0.09767,-0.15968 0.234095,-0.23564 0.136425,-0.076 0.324011,-0.076 0.189136,0 0.320911,0.0961 0.133325,0.0961 0.196887,0.27905 z"
         style="font-size:3.17499995px;fill:#000000"
         id="path7308" />
      <path
         d="m 43.036682,196.59709 q -0.229443,0 -0.362768,0.17983 -0.133325,0.17829 -0.133325,0.48989 0,0.31161 0.131774,0.49145 0.133326,0.17828 0.364319,0.17828 0.227893,0 0.361219,-0.17983 0.133325,-0.17984 0.133325,-0.4899 0,-0.3085 -0.133325,-0.48834 -0.133326,-0.18138 -0.361219,-0.18138 z m 0,-0.24185 q 0.372071,0 0.584461,0.24185 0.21239,0.24184 0.21239,0.66972 0,0.42634 -0.21239,0.66973 -0.21239,0.24185 -0.584461,0.24185 -0.37362,0 -0.58601,-0.24185 -0.21084,-0.24339 -0.21084,-0.66973 0,-0.42788 0.21084,-0.66972 0.21239,-0.24185 0.58601,-0.24185 z"
         style="font-size:3.17499995px;fill:#000000"
         id="path7310" />
      <path
         d="m 44.304822,195.72117 0.285254,0 0,2.41226 -0.285254,0 0,-2.41226 z"
         style="font-size:3.17499995px;fill:#000000"
         id="path7312" />
      <path
         d="m 45.858216,196.59709 q -0.229444,0 -0.362769,0.17983 -0.133325,0.17829 -0.133325,0.48989 0,0.31161 0.131775,0.49145 0.133325,0.17828 0.364319,0.17828 0.227893,0 0.361218,-0.17983 0.133325,-0.17984 0.133325,-0.4899 0,-0.3085 -0.133325,-0.48834 -0.133325,-0.18138 -0.361218,-0.18138 z m 0,-0.24185 q 0.37207,0 0.58446,0.24185 0.21239,0.24184 0.21239,0.66972 0,0.42634 -0.21239,0.66973 -0.21239,0.24185 -0.58446,0.24185 -0.373621,0 -0.586011,-0.24185 -0.21084,-0.24339 -0.21084,-0.66973 0,-0.42788 0.21084,-0.66972 0.21239,-0.24185 0.586011,-0.24185 z"
         style="font-size:3.17499995px;fill:#000000"
         id="path7314" />
    </g>
    <g
       transform="translate(-23.707243,85.737342)"
       style="font-style:normal;font-weight:normal;font-size:11.28888893px;line-height:125%;font-family:sans-serif;letter-spacing:0px;word-spacing:0px;fill:#000000;fill-opacity:1;stroke:none;stroke-width:1px;stroke-linecap:butt;stroke-linejoin:miter;stroke-opacity:1"
       id="flowRoot4371">
      <path
         d="m 35.999902,195.89481 0,0.3054 q -0.178283,-0.0853 -0.336413,-0.12712 -0.15813,-0.0419 -0.305408,-0.0419 -0.255798,0 -0.395325,0.0992 -0.137976,0.0992 -0.137976,0.28215 0,0.15348 0.09147,0.23255 0.09302,0.0775 0.350366,0.12557 l 0.189135,0.0388 q 0.350367,0.0667 0.516248,0.23564 0.167432,0.16743 0.167432,0.44959 0,0.33641 -0.226343,0.51004 -0.224793,0.17364 -0.660425,0.17364 -0.164331,0 -0.350366,-0.0372 -0.184485,-0.0372 -0.382922,-0.11007 l 0,-0.32246 q 0.190686,0.10697 0.37362,0.16123 0.182935,0.0543 0.359668,0.0543 0.268201,0 0.413928,-0.10542 0.145728,-0.10542 0.145728,-0.30076 0,-0.17053 -0.10542,-0.26665 -0.10387,-0.0961 -0.342615,-0.14418 l -0.190686,-0.0372 q -0.350366,-0.0698 -0.506946,-0.21859 -0.156579,-0.14883 -0.156579,-0.41393 0,-0.30696 0.215491,-0.48369 0.217041,-0.17674 0.596862,-0.17674 0.162781,0 0.331763,0.0295 0.168982,0.0294 0.345715,0.0884 z"
         style="font-size:3.17499995px;fill:#000000"
         id="path7289" />
      <path
         d="m 38.064892,197.08543 0,1.048 -0.285253,0 0,-1.0387 q 0,-0.24649 -0.09612,-0.36897 -0.09612,-0.12247 -0.288354,-0.12247 -0.230994,0 -0.364319,0.14728 -0.133325,0.14728 -0.133325,0.40152 l 0,0.98134 -0.286804,0 0,-2.41226 0.286804,0 0,0.94568 q 0.102319,-0.15658 0.240295,-0.23409 0.139527,-0.0775 0.320911,-0.0775 0.299206,0 0.452685,0.18604 0.153479,0.18448 0.153479,0.54415 z"
         style="font-size:3.17499995px;fill:#000000"
         id="path7291" />
      <path
         d="m 39.426049,197.26061 q -0.345715,0 -0.47904,0.0791 -0.133325,0.0791 -0.133325,0.26975 0,0.15193 0.09922,0.24185 0.100769,0.0884 0.272852,0.0884 0.237195,0 0.379822,-0.16743 0.144177,-0.16898 0.144177,-0.44803 l 0,-0.0636 -0.283704,0 z m 0.568958,-0.11782 0,0.99064 -0.285254,0 0,-0.26355 q -0.09767,0.15813 -0.243396,0.23409 -0.145728,0.0744 -0.356567,0.0744 -0.266651,0 -0.424781,-0.14883 -0.156579,-0.15038 -0.156579,-0.40153 0,-0.293 0.195337,-0.44183 0.196887,-0.14883 0.58601,-0.14883 l 0.399976,0 0,-0.0279 q 0,-0.19689 -0.130225,-0.30386 -0.128674,-0.10852 -0.362768,-0.10852 -0.148828,0 -0.289905,0.0357 -0.141077,0.0357 -0.271301,0.10698 l 0,-0.26355 q 0.156579,-0.0605 0.303857,-0.0899 0.147278,-0.031 0.286804,-0.031 0.376722,0 0.562757,0.19534 0.186035,0.19534 0.186035,0.59221 z"
         style="font-size:3.17499995px;fill:#000000"
         id="path7293" />
      <path
         d="m 40.866272,197.87298 0,0.92087 -0.286805,0 0,-2.39675 0.286805,0 0,0.26355 q 0.08992,-0.15503 0.226342,-0.22944 0.137976,-0.076 0.328662,-0.076 0.31626,0 0.513147,0.25115 0.198438,0.25115 0.198438,0.66042 0,0.40928 -0.198438,0.66043 -0.196887,0.25115 -0.513147,0.25115 -0.190686,0 -0.328662,-0.0744 -0.136425,-0.076 -0.226342,-0.23099 z m 0.970483,-0.60617 q 0,-0.3147 -0.130225,-0.49299 -0.128674,-0.17983 -0.355017,-0.17983 -0.226342,0 -0.356567,0.17983 -0.128674,0.17829 -0.128674,0.49299 0,0.31471 0.128674,0.49455 0.130225,0.17828 0.356567,0.17828 0.226343,0 0.355017,-0.17828 0.130225,-0.17984 0.130225,-0.49455 z"
         style="font-size:3.17499995px;fill:#000000"
         id="path7295" />
      <path
         d="m 44.090881,197.19395 0,0.13953 -1.311548,0 q 0.0186,0.29455 0.176734,0.44958 0.15968,0.15348 0.443383,0.15348 0.164331,0 0.31781,-0.0403 0.15503,-0.0403 0.306958,-0.12092 l 0,0.26975 q -0.153479,0.0651 -0.314709,0.0992 -0.161231,0.0341 -0.327112,0.0341 -0.415478,0 -0.658874,-0.24185 -0.241846,-0.24184 -0.241846,-0.65422 0,-0.42633 0.229443,-0.67593 0.230994,-0.25115 0.621668,-0.25115 0.350366,0 0.553454,0.22635 0.204639,0.22479 0.204639,0.61236 z m -0.285254,-0.0837 q -0.0031,-0.2341 -0.131775,-0.37363 -0.127124,-0.13952 -0.337964,-0.13952 -0.238745,0 -0.382922,0.13487 -0.142627,0.13488 -0.164331,0.37983 l 1.016992,-0.002 z"
         style="font-size:3.17499995px;fill:#000000"
         id="path7297" />
      <path
         d="m 45.559009,196.66375 q -0.04806,-0.0279 -0.10542,-0.0403 -0.05581,-0.0139 -0.124024,-0.0139 -0.241845,0 -0.37207,0.15813 -0.128674,0.15658 -0.128674,0.45114 l 0,0.91467 -0.286804,0 0,-1.73633 0.286804,0 0,0.26975 q 0.08992,-0.15813 0.234094,-0.23409 0.144177,-0.0775 0.350366,-0.0775 0.02946,0 0.06511,0.005 0.03566,0.003 0.07906,0.0109 l 0.0016,0.293 z"
         style="font-size:3.17499995px;fill:#000000"
         id="path7299" />
    </g>
    <g
       transform="translate(-23.809562,74.678569)"
       style="font-style:normal;font-weight:normal;font-size:11.28888893px;line-height:125%;font-family:sans-serif;letter-spacing:0px;word-spacing:0px;fill:#000000;fill-opacity:1;stroke:none;stroke-width:1px;stroke-linecap:butt;stroke-linejoin:miter;stroke-opacity:1"
       id="flowRoot4387">
      <path
         d="m 34.61239,195.81884 0.313159,0 0,0.94878 1.137915,0 0,-0.94878 0.31316,0 0,2.31459 -0.31316,0 0,-1.10226 -1.137915,0 0,1.10226 -0.313159,0 0,-2.31459 z"
         style="font-size:3.17499995px;fill:#000000"
         id="path7317" />
      <path
         d="m 37.776538,197.26061 q -0.345715,0 -0.47904,0.0791 -0.133326,0.0791 -0.133326,0.26975 0,0.15193 0.09922,0.24185 0.100769,0.0884 0.272852,0.0884 0.237194,0 0.379821,-0.16743 0.144178,-0.16898 0.144178,-0.44803 l 0,-0.0636 -0.283704,0 z m 0.568958,-0.11782 0,0.99064 -0.285254,0 0,-0.26355 q -0.09767,0.15813 -0.243396,0.23409 -0.145728,0.0744 -0.356568,0.0744 -0.26665,0 -0.42478,-0.14883 -0.15658,-0.15038 -0.15658,-0.40153 0,-0.293 0.195337,-0.44183 0.196888,-0.14883 0.586011,-0.14883 l 0.399976,0 0,-0.0279 q 0,-0.19689 -0.130225,-0.30386 -0.128674,-0.10852 -0.362768,-0.10852 -0.148829,0 -0.289905,0.0357 -0.141077,0.0357 -0.271302,0.10698 l 0,-0.26355 q 0.15658,-0.0605 0.303858,-0.0899 0.147278,-0.031 0.286804,-0.031 0.376721,0 0.562756,0.19534 0.186036,0.19534 0.186036,0.59221 z"
         style="font-size:3.17499995px;fill:#000000"
         id="path7319" />
      <path
         d="m 39.946948,196.66375 q -0.04806,-0.0279 -0.10542,-0.0403 -0.05581,-0.0139 -0.124023,-0.0139 -0.241846,0 -0.37207,0.15813 -0.128675,0.15658 -0.128675,0.45114 l 0,0.91467 -0.286804,0 0,-1.73633 0.286804,0 0,0.26975 q 0.08992,-0.15813 0.234094,-0.23409 0.144178,-0.0775 0.350367,-0.0775 0.02945,0 0.06511,0.005 0.03566,0.003 0.07906,0.0109 l 0.0016,0.293 z"
         style="font-size:3.17499995px;fill:#000000"
         id="path7321" />
      <path
         d="m 41.548401,196.73041 q 0.10697,-0.19223 0.255798,-0.2837 0.148828,-0.0915 0.350366,-0.0915 0.271302,0 0.418579,0.19069 0.147278,0.18913 0.147278,0.5395 l 0,1.048 -0.286804,0 0,-1.0387 q 0,-0.24959 -0.08837,-0.37052 -0.08837,-0.12092 -0.269751,-0.12092 -0.221691,0 -0.350366,0.14728 -0.128674,0.14728 -0.128674,0.40152 l 0,0.98134 -0.286804,0 0,-1.0387 q 0,-0.25115 -0.08837,-0.37052 -0.08837,-0.12092 -0.272852,-0.12092 -0.218591,0 -0.347265,0.14883 -0.128674,0.14728 -0.128674,0.39997 l 0,0.98134 -0.286805,0 0,-1.73633 0.286805,0 0,0.26975 q 0.09767,-0.15968 0.234094,-0.23564 0.136426,-0.076 0.324011,-0.076 0.189136,0 0.320911,0.0961 0.133325,0.0961 0.196887,0.27905 z"
         style="font-size:3.17499995px;fill:#000000"
         id="path7323" />
      <path
         d="m 43.960656,196.59709 q -0.229443,0 -0.362768,0.17983 -0.133325,0.17829 -0.133325,0.48989 0,0.31161 0.131775,0.49145 0.133325,0.17828 0.364318,0.17828 0.227893,0 0.361219,-0.17983 0.133325,-0.17984 0.133325,-0.4899 0,-0.3085 -0.133325,-0.48834 -0.133326,-0.18138 -0.361219,-0.18138 z m 0,-0.24185 q 0.372071,0 0.584461,0.24185 0.21239,0.24184 0.21239,0.66972 0,0.42634 -0.21239,0.66973 -0.21239,0.24185 -0.584461,0.24185 -0.37362,0 -0.58601,-0.24185 -0.21084,-0.24339 -0.21084,-0.66973 0,-0.42788 0.21084,-0.66972 0.21239,-0.24185 0.58601,-0.24185 z"
         style="font-size:3.17499995px;fill:#000000"
         id="path7325" />
    </g>
    <path
       style="color:#000000;font-style:normal;font-variant:normal;font-weight:normal;font-stretch:normal;font-size:medium;line-height:normal;font-family:sans-serif;text-indent:0;text-align:start;text-decoration:none;text-decoration-line:none;text-decoration-style:solid;text-decoration-color:#000000;letter-spacing:normal;word-spacing:normal;text-transform:none;direction:ltr;block-progression:tb;writing-mode:lr-tb;baseline-shift:baseline;text-anchor:start;white-space:normal;clip-rule:nonzero;display:inline;overflow:visible;visibility:visible;opacity:1;isolation:auto;mix-blend-mode:normal;color-interpolation:sRGB;color-interpolation-filters:linearRGB;solid-color:#000000;solid-opacity:1;fill:#f8f8f8;fill-opacity:1;fill-rule:evenodd;stroke:none;stroke-width:1.58200002;stroke-linecap:butt;stroke-linejoin:miter;stroke-miterlimit:4;stroke-dasharray:1.58200001, 4.74600003;stroke-dashoffset:0;stroke-opacity:1;color-rendering:auto;image-rendering:auto;shape-rendering:auto;text-rendering:auto;enable-background:accumulate"
       d="m 11.710938,213.22461 1.582031,0 0,-1.58203 -1.582031,0 z m 6.328124,0 1.582032,0 0,-1.58203 -1.582032,0 z m 6.328126,0 1.582031,0 0,-1.58203 -1.582031,0 z m 6.328124,0 1.582032,0 0,-1.58203 -1.582032,0 z m 6.328126,0 1.582031,0 0,-1.58203 -1.582031,0 z m 6.328124,0 1.582032,0 0,-1.58203 -1.582032,0 z m 6.328126,0 1.582031,0 0,-1.58203 -1.582031,0 z m 6.326171,0 1.582032,0 0,-1.58203 -1.582032,0 z m 6.328125,0 1.582032,0 0,-1.58203 -1.582032,0 z m 6.328125,0 1.582032,0 0,-1.58203 -1.582032,0 z m 6.328125,0 0.986328,0 0,-1.58203 -0.986328,0 z"
       id="path4413"
       inkscape:connector-curvature="0" />
    <path
       style="color:#000000;font-style:normal;font-variant:normal;font-weight:normal;font-stretch:normal;font-size:medium;line-height:normal;font-family:sans-serif;text-indent:0;text-align:start;text-decoration:none;text-decoration-line:none;text-decoration-style:solid;text-decoration-color:#000000;letter-spacing:normal;word-spacing:normal;text-transform:none;direction:ltr;block-progression:tb;writing-mode:lr-tb;baseline-shift:baseline;text-anchor:start;white-space:normal;clip-rule:nonzero;display:inline;overflow:visible;visibility:visible;opacity:1;isolation:auto;mix-blend-mode:normal;color-interpolation:sRGB;color-interpolation-filters:linearRGB;solid-color:#000000;solid-opacity:1;fill:#f8f8f8;fill-opacity:1;fill-rule:evenodd;stroke:none;stroke-width:1.68200004;stroke-linecap:butt;stroke-linejoin:miter;stroke-miterlimit:4;stroke-dasharray:1.68200001, 5.04600003;stroke-dashoffset:0;stroke-opacity:1;color-rendering:auto;image-rendering:auto;shape-rendering:auto;text-rendering:auto;enable-background:accumulate"
       d="m 3.2441406,253.34961 1.6816406,0 0,-1.68164 -1.6816406,0 z m 6.7285156,0 1.6816408,0 0,-1.68164 -1.6816408,0 z m 6.7265628,0 1.683593,0 0,-1.68164 -1.683593,0 z m 6.728515,0 1.681641,0 0,-1.68164 -1.681641,0 z m 6.728516,0 1.681641,0 0,-1.68164 -1.681641,0 z"
       id="path4415"
       inkscape:connector-curvature="0" />
    <g
       transform="matrix(4.1122143,0,0,2.5503759,-175.76922,-427.346)"
       id="g4429">
      <path
         style="fill:#ffffff;fill-rule:evenodd;stroke:#ffffff;stroke-width:0.28222221px;stroke-linecap:butt;stroke-linejoin:miter;stroke-opacity:1"
         d="m 58.482625,261.36773 0,-0.64266"
         id="path4419"
         inkscape:connector-curvature="0" />
      <path
         style="fill:#ffffff;fill-rule:evenodd;stroke:#ffffff;stroke-width:0.28222221px;stroke-linecap:butt;stroke-linejoin:miter;stroke-opacity:1"
         d="m 59.69655,260.72507 0,-0.71408"
         id="path4421"
         inkscape:connector-curvature="0" />
      <path
         style="fill:#ffffff;fill-rule:evenodd;stroke:#ffffff;stroke-width:0.28222221px;stroke-linecap:butt;stroke-linejoin:miter;stroke-opacity:1"
         d="m 60.482031,261.93899 0.804271,-0.2155"
         id="path4423"
         inkscape:connector-curvature="0" />
      <path
         style="fill:#ffffff;fill-rule:evenodd;stroke:#ffffff;stroke-width:0.28222221px;stroke-linecap:butt;stroke-linejoin:miter;stroke-opacity:1"
         d="m 59.982179,261.43914 0.416314,-0.72108"
         id="path4425"
         inkscape:connector-curvature="0" />
      <path
         style="fill:#ffffff;fill-rule:evenodd;stroke:#ffffff;stroke-width:0.28222221px;stroke-linecap:butt;stroke-linejoin:miter;stroke-opacity:1"
         d="m 59.69655,262.0104 -0.642665,0"
         id="path4427"
         inkscape:connector-curvature="0" />
    </g>
    <g
       transform="matrix(0.56649025,2.8546358,-3.1772995,0.50896157,843.59339,-32.998356)"
       id="g4436">
      <path
         inkscape:connector-curvature="0"
         id="path4438"
         d="m 58.482625,261.36773 0,-0.64266"
         style="fill:#ffffff;fill-rule:evenodd;stroke:#ffffff;stroke-width:0.32886842px;stroke-linecap:butt;stroke-linejoin:miter;stroke-opacity:1" />
      <path
         inkscape:connector-curvature="0"
         id="path4440"
         d="m 59.69655,260.72507 0,-0.71408"
         style="fill:#ffffff;fill-rule:evenodd;stroke:#ffffff;stroke-width:0.32886842px;stroke-linecap:butt;stroke-linejoin:miter;stroke-opacity:1" />
      <path
         inkscape:connector-curvature="0"
         id="path4442"
         d="m 60.482031,261.93899 0.804271,-0.2155"
         style="fill:#ffffff;fill-rule:evenodd;stroke:#ffffff;stroke-width:0.32886842px;stroke-linecap:butt;stroke-linejoin:miter;stroke-opacity:1" />
      <path
         inkscape:connector-curvature="0"
         id="path4444"
         d="m 59.982179,261.43914 0.416314,-0.72108"
         style="fill:#ffffff;fill-rule:evenodd;stroke:#ffffff;stroke-width:0.32886842px;stroke-linecap:butt;stroke-linejoin:miter;stroke-opacity:1" />
      <path
         inkscape:connector-curvature="0"
         id="path4446"
         d="m 59.69655,262.0104 -0.642665,0"
         style="fill:#ffffff;fill-rule:evenodd;stroke:#ffffff;stroke-width:0.32886842px;stroke-linecap:butt;stroke-linejoin:miter;stroke-opacity:1" />
    </g>
    <g
       id="g6981"
       transform="matrix(18.045763,0,0,30.486929,-1011.3503,-7704.4251)">
      <path
         id="path6983"
         style="fill:#ffffff;fill-rule:evenodd;stroke:#ffffff;stroke-width:0.07964938;stroke-linecap:butt;stroke-linejoin:miter;stroke-opacity:1"
         d="m 58.482625,261.36773 c 0,0 0,-0.64266 0,-0.64266"
         inkscape:connector-curvature="0" />
      <path
         id="path6985"
         style="fill:#ffffff;fill-rule:evenodd;stroke:#ffffff;stroke-width:0.07964938;stroke-linecap:butt;stroke-linejoin:miter;stroke-opacity:1"
         d="m 58.634877,261.37498 c 0,0 0.04227,-0.65062 0.04227,-0.65062"
         inkscape:connector-curvature="0" />
      <path
         id="path6987"
         style="fill:#ffffff;fill-rule:evenodd;stroke:#ffffff;stroke-width:0.07964938;stroke-linecap:butt;stroke-linejoin:miter;stroke-opacity:1"
         d="m 58.808984,261.38327 c 0,0 0.09061,-0.65973 0.09061,-0.65973"
         inkscape:connector-curvature="0" />
      <path
         id="path6989"
         style="fill:#ffffff;fill-rule:evenodd;stroke:#ffffff;stroke-width:0.07964938;stroke-linecap:butt;stroke-linejoin:miter;stroke-opacity:1"
         d="m 58.992421,261.39201 c 0,0 0.141532,-0.66932 0.141532,-0.66932"
         inkscape:connector-curvature="0" />
      <path
         id="path6991"
         style="fill:#ffffff;fill-rule:evenodd;stroke:#ffffff;stroke-width:0.07964938;stroke-linecap:butt;stroke-linejoin:miter;stroke-opacity:1"
         d="m 59.182192,261.40104 c 0,0 0.194217,-0.67924 0.194217,-0.67924"
         inkscape:connector-curvature="0" />
      <path
         id="path6993"
         style="fill:#ffffff;fill-rule:evenodd;stroke:#ffffff;stroke-width:0.07964938;stroke-linecap:butt;stroke-linejoin:miter;stroke-opacity:1"
         d="m 59.376816,261.41031 c 0,0 0.24825,-0.68942 0.24825,-0.68942"
         inkscape:connector-curvature="0" />
      <path
         id="path6995"
         style="fill:#ffffff;fill-rule:evenodd;stroke:#ffffff;stroke-width:0.07964938;stroke-linecap:butt;stroke-linejoin:miter;stroke-opacity:1"
         d="m 59.575397,261.41977 c 0,0 0.303381,-0.69981 0.303381,-0.69981"
         inkscape:connector-curvature="0" />
      <path
         id="path6997"
         style="fill:#ffffff;fill-rule:evenodd;stroke:#ffffff;stroke-width:0.07964938;stroke-linecap:butt;stroke-linejoin:miter;stroke-opacity:1"
         d="m 59.77733,261.42938 c 0,0 0.359443,-0.71036 0.359443,-0.71036"
         inkscape:connector-curvature="0" />
      <path
         id="path6999"
         style="fill:#ffffff;fill-rule:evenodd;stroke:#ffffff;stroke-width:0.07964938;stroke-linecap:butt;stroke-linejoin:miter;stroke-opacity:1"
         d="m 59.982179,261.43914 c 0,0 0.416314,-0.72108 0.416314,-0.72108"
         inkscape:connector-curvature="0" />
    </g>
  </g>
  <g
     style="display:none"
     inkscape:label="components"
     id="layer2"
     inkscape:groupmode="layer">
    <circle
       style="display:inline;opacity:1;fill:#0000ff;fill-opacity:1;stroke-width:0.26458332"
       id="circle4238"
       cx="70.77124"
       cy="114.49486"
       r="3.7081757"
       inkscape:label="out" />
    <circle
       style="display:inline;opacity:1;fill:#ff0000;fill-opacity:1;stroke-width:0.26458332"
       id="circle4379"
       cx="42.143196"
       cy="34.130539"
       r="3.7081757"
       inkscape:label="octave" />
    <circle
       r="3.7081757"
       cy="34.130539"
       cx="66.958191"
       id="circle4382"
       style="display:inline;opacity:1;fill:#ff0000;fill-opacity:1;stroke-width:0.26458332"
       inkscape:label="detune" />
    <circle
       r="3.7081757"
       cy="34.130539"
       cx="15.790212"
       id="circle4384"
       style="display:inline;opacity:1;fill:#00ff00;fill-opacity:1;stroke-width:0.26458332"
       inkscape:label="vOct" />
    <circle
       r="3.7081757"
       cy="59.558372"
       cx="39.482182"
       id="circle4395"
       style="display:inline;opacity:1;fill:#ff0000;fill-opacity:1;stroke-width:0.26458332"
       inkscape:label="a" />
    <circle
       style="display:inline;opacity:1;fill:#ff0000;fill-opacity:1;stroke-width:0.26458332"
       id="circle4397"
       cx="50.107315"
       cy="59.558372"
       r="3.7081757"
       inkscape:label="d" />
    <circle
       r="3.7081757"
       cy="59.558372"
       cx="60.732452"
       id="circle4399"
       style="display:inline;opacity:1;fill:#ff0000;fill-opacity:1;stroke-width:0.26458332"
       inkscape:label="s" />
    <circle
       style="display:inline;opacity:1;fill:#ff0000;fill-opacity:1;stroke-width:0.26458332"
       id="circle4401"
       cx="71.357582"
       cy="59.558372"
       r="3.7081757"
       inkscape:label="r" />
    <circle
       style="display:inline;opacity:1;fill:#00ff00;fill-opacity:1;stroke-width:0.26458332"
       id="circle4403"
       cx="15.790212"
       cy="59.558372"
       r="3.7081757"
       inkscape:label="gate" />
    <circle
       r="3.7081757"
       cy="76.430946"
       cx="15.790212"
       id="circle4405"
       style="display:inline;opacity:1;fill:#00ff00;fill-opacity:1;stroke-width:0.26458332"
       inkscape:label="velocity" />
    <circle
       r="3.7081757"
       cy="91.859512"
       cx="28.460245"
       id="circle4407"
       style="display:inline;opacity:1;fill:#ff0000;fill-opacity:1;stroke-width:0.26458332"
       inkscape:label="tremolo" />
    <circle
       style="display:inline;opacity:1;fill:#ff0000;fill-opacity:1;stroke-width:0.26458332"
       id="circle4409"
       cx="28.460245"
       cy="103.17719"
       r="3.7081757"
       inkscape:label="harmo" />
    <circle
       r="3.7081757"
       cy="114.49486"
       cx="28.460245"
       id="circle4411"
       style="display:inline;opacity:1;fill:#ff0000;fill-opacity:1;stroke-width:0.26458332"
       inkscape:label="shaper" />
    <circle
       r="2.2943821"
       cy="51.786575"
       cx="6.9573135"
       id="circle7176"
       style="display:inline;opacity:1;fill:#ff00ff;fill-opacity:1;stroke-width:0.26458332"
       inkscape:label="gateLight" />
  </g>
</svg>
